<svg width="94" height="100" viewBox="0 0 94 100" xmlns="http://www.w3.org/2000/svg"><title>ico-recepten</title><path d="M83.124 4.158A2.436 2.436 0 1 1 86.569.714l.327.327a2.436 2.436 0 0 1-3.444 3.444l-.328-.327zm-.328 27.122c3.884 0 7.045 3.16 7.045 7.044 0 3.884-3.16 7.044-7.045 7.044a7.052 7.052 0 0 1-7.044-7.044 7.052 7.052 0 0 1 7.044-7.044zm0 4.872a2.175 2.175 0 0 0-2.173 2.172c0 1.198.975 2.173 2.173 2.173a2.175 2.175 0 0 0 2.173-2.173 2.175 2.175 0 0 0-2.173-2.172zm11.037 30.424v2.92a6.908 6.908 0 0 1-6.9 6.901h-2.03V89.53c0 5.774-4.697 10.471-10.471 10.471H19.401C13.627 100 8.93 95.303 8.93 89.53V76.396H6.9a6.908 6.908 0 0 1-6.9-6.9v-2.92a6.908 6.908 0 0 1 6.9-6.901h2.03v-7.198a2.436 2.436 0 0 1 2.436-2.435h71.101a2.436 2.436 0 0 1 2.436 2.435v7.198h2.03c3.804 0 6.9 3.095 6.9 6.9zM8.93 64.547H6.9c-1.119 0-2.029.91-2.029 2.03v2.92c0 1.119.91 2.029 2.03 2.029H8.93v-6.979zm71.101-9.633h-66.23v34.615c0 3.088 2.512 5.6 5.6 5.6h55.03c3.089 0 5.6-2.512 5.6-5.6V54.914zm8.93 11.662c0-1.119-.91-2.029-2.029-2.029h-2.029v6.979h2.03c1.118 0 2.028-.91 2.028-2.03v-2.92zM76.378 19.521a2.43 2.43 0 0 0 1.721-.712l.328-.328a2.435 2.435 0 1 0-3.443-3.446l-.328.328a2.435 2.435 0 0 0 1.722 4.158zM56.189 45.227a2.436 2.436 0 0 0 4.872 0 3.493 3.493 0 0 1 3.489-3.49 3.493 3.493 0 0 1 3.49 3.49 2.436 2.436 0 0 0 4.87 0c0-4.61-3.75-8.36-8.36-8.36-4.61 0-8.36 3.75-8.36 8.36zM10.697 41.58a2.434 2.434 0 0 1 1.81-2.93l26.46-6.257-.467-1.975a6.908 6.908 0 0 1 5.128-8.302l2.842-.672a6.909 6.909 0 0 1 8.303 5.127l.467 1.975L81.7 22.29a2.436 2.436 0 0 1 1.121 4.74L13.628 43.39a2.437 2.437 0 0 1-2.93-1.81zM43.24 29.3l.467 1.974 6.792-1.605-.467-1.975a2.033 2.033 0 0 0-2.442-1.508l-2.842.672A2.032 2.032 0 0 0 43.24 29.3z" fill="#FFF"/></svg>