<svg width="22" height="26" viewBox="0 0 22 26" xmlns="http://www.w3.org/2000/svg"><title>shoppingcart</title><g fill="none"><path d="M14.217 7.425a.518.518 0 1 0 0-1.036H7.104a.518.518 0 1 0 0 1.036h7.113z" fill="#424036"/><path d="M21.352 6.389h-3.529a.518.518 0 1 0 0 1.036h3.011v17.504H1.053V7.425H3.89a.518.518 0 1 0 0-1.036H.535a.518.518 0 0 0-.518.518v18.54c0 .287.232.518.518.518h20.817a.518.518 0 0 0 .518-.518V6.907a.518.518 0 0 0-.518-.518z" fill="#000"/><path d="M15.969 8.59a.518.518 0 0 0 .518-.518V4.295C16.487 1.927 13.931 0 10.776 0 7.634 0 5.078 1.927 5.078 4.295v3.777a.518.518 0 1 0 1.036 0V4.295c0-1.797 2.092-3.259 4.675-3.259 2.57 0 4.662 1.462 4.662 3.259v3.777c0 .286.232.518.518.518zm-11.706.814a1.335 1.335 0 0 0 2.666 0 .518.518 0 1 0-1.036 0 .297.297 0 0 1-.594 0 .518.518 0 1 0-1.036 0zm11.706 1.332c.735 0 1.333-.598 1.333-1.332a.518.518 0 1 0-1.036 0 .297.297 0 0 1-.594 0 .518.518 0 1 0-1.036 0c0 .734.598 1.332 1.333 1.332z" fill="#000"/></g></svg>