<svg width="66" height="100" viewBox="0 0 66 100" xmlns="http://www.w3.org/2000/svg"><title>ico-shop</title><path d="M49.726 71.649c0-8.461-6.289-15.48-14.438-16.632v-1.961a2.36 2.36 0 0 0-4.72 0v1.961c-8.148 1.151-14.437 8.171-14.437 16.632v.888h-2.22a2.36 2.36 0 1 0 0 4.72h38.035a2.36 2.36 0 0 0 0-4.72h-2.22v-.888zm-4.72.888H20.85v-.888c0-6.66 5.418-12.077 12.077-12.077 6.66 0 12.078 5.418 12.078 12.077v.888zM65.72 11.811a2.346 2.346 0 0 0-.848-1.775 2.39 2.39 0 0 0-.242-.178c-1.11-.744-1.746-1.746-1.746-2.754 0-1.018.648-2.029 1.777-2.775A2.36 2.36 0 0 0 63.359 0H2.36A2.36 2.36 0 0 0 0 2.36v84.347a2.36 2.36 0 0 0 2.36 2.36h3.382v8.573a2.36 2.36 0 0 0 3.573 2.024l4.887-2.93 4.886 2.93a2.361 2.361 0 0 0 3.574-2.024v-8.573h40.697a2.36 2.36 0 0 0 2.36-2.36V11.811zm-61-7.091h53.845a7.28 7.28 0 0 0 0 4.768H4.72V4.72zm13.221 88.754l-2.526-1.515a2.36 2.36 0 0 0-2.427 0l-2.527 1.515v-4.407h7.48v4.407zM61 84.347H4.72V14.208H61v70.139zM11.414 31.269c0-3.4 2.767-6.166 6.166-6.166h16.625c.784 0 1.447-.662 1.447-1.446a2.36 2.36 0 0 1 4.72 0c0 3.4-2.766 6.166-6.167 6.166H17.58c-.783 0-1.446.663-1.446 1.446 0 .784.663 1.447 1.446 1.447h26.778c3.4 0 6.166 2.766 6.166 6.166 0 3.4-2.766 6.166-6.166 6.166H29.2c-.784 0-1.446.663-1.446 1.447V50.3a2.36 2.36 0 1 1-4.72 0v-3.806c0-3.4 2.766-6.167 6.166-6.167h15.158c.784 0 1.446-.662 1.446-1.446 0-.784-.662-1.446-1.446-1.446H17.58a6.173 6.173 0 0 1-6.166-6.167z" fill="#EFEBDF"/></svg>