<svg width="48" height="73" viewBox="0 0 48 73" xmlns="http://www.w3.org/2000/svg"><title>ico-shop</title><path d="M35.68 51.743c0-6.066-4.51-11.1-10.352-11.925v-1.406a1.692 1.692 0 0 0-3.384 0v1.406c-5.842.826-10.35 5.859-10.35 11.925v.637H10a1.692 1.692 0 1 0 0 3.384h27.27a1.692 1.692 0 0 0 0-3.384h-1.592v-.637zm-3.385.637H14.977v-.637c0-4.775 3.885-8.659 8.66-8.659 4.774 0 8.658 3.884 8.658 8.659v.637zM47.146 8.84a1.682 1.682 0 0 0-.781-1.4c-.796-.533-1.252-1.252-1.252-1.974 0-.73.464-1.455 1.274-1.99a1.692 1.692 0 0 0-.933-3.104H1.72A1.693 1.693 0 0 0 .028 2.065V62.54c0 .934.757 1.692 1.692 1.692h2.424v6.146a1.692 1.692 0 0 0 2.562 1.452l3.504-2.1 3.503 2.1a1.693 1.693 0 0 0 2.562-1.452v-6.146h29.179c.934 0 1.692-.758 1.692-1.692V8.841zM3.412 3.757h38.605a5.219 5.219 0 0 0 0 3.419H3.412V3.757zm9.48 63.633l-1.812-1.085a1.692 1.692 0 0 0-1.74 0L7.528 67.39v-3.16h5.363v3.16zm30.87-6.543H3.412V10.56h40.35v50.287zM8.212 22.792a4.426 4.426 0 0 1 4.42-4.42h11.92c.562 0 1.037-.476 1.037-1.038a1.692 1.692 0 0 1 3.384 0 4.426 4.426 0 0 1-4.421 4.421h-11.92a1.05 1.05 0 0 0-1.037 1.037 1.05 1.05 0 0 0 1.037 1.037h19.199a4.426 4.426 0 0 1 4.42 4.421 4.426 4.426 0 0 1-4.42 4.421H20.963a1.05 1.05 0 0 0-1.037 1.037v2.73a1.692 1.692 0 1 1-3.384 0v-2.73a4.426 4.426 0 0 1 4.42-4.42h10.869c.562 0 1.037-.476 1.037-1.038a1.05 1.05 0 0 0-1.037-1.037H12.632a4.426 4.426 0 0 1-4.42-4.42z" fill="#FFF"/></svg>