<svg width="64" height="67" viewBox="0 0 64 67" xmlns="http://www.w3.org/2000/svg"><title>ico-community</title><path d="M15.544 48.318a1.625 1.625 0 0 1-2.159.786l-7.204-3.36A1.625 1.625 0 0 1 7.554 42.8l7.204 3.36a1.625 1.625 0 0 1 .786 2.16zm-3.48-29.258h.317V30.6a1.625 1.625 0 1 0 3.25 0V19.06h16.196c5.255 0 9.53-4.275 9.53-9.53a1.625 1.625 0 1 0-3.249 0 6.287 6.287 0 0 1-6.28 6.28H12.063a6.288 6.288 0 0 1-6.28-6.28 6.288 6.288 0 0 1 6.28-6.28h9.15a9.338 9.338 0 0 0-2.339 6.184 1.625 1.625 0 1 0 3.25 0c0-3.41 2.817-6.184 6.28-6.184H51.59a6.287 6.287 0 0 1 6.28 6.28 6.287 6.287 0 0 1-6.28 6.28h-7.906a1.625 1.625 0 1 0 0 3.25h4.34V30.6a1.625 1.625 0 1 0 3.25 0V19.06h.316c5.255 0 9.53-4.275 9.53-9.53 0-5.255-4.275-9.53-9.53-9.53H12.064c-5.255 0-9.53 4.275-9.53 9.53 0 5.255 4.275 9.53 9.53 9.53zm45.603 22.66a1.625 1.625 0 0 0-2.142.831c-.248.563-.608.958-1.07 1.173l-3.975 1.854c-.458.214-.987.237-1.572.07a1.625 1.625 0 0 0-.893 3.125 5.94 5.94 0 0 0 1.632.235 5.19 5.19 0 0 0 2.206-.484l3.976-1.854c1.18-.55 2.103-1.521 2.67-2.809a1.625 1.625 0 0 0-.832-2.142zm-40.992.328l-7.204-3.36a1.624 1.624 0 1 0-1.374 2.946l7.205 3.36a1.625 1.625 0 0 0 1.373-2.945zM63.141 45.9a8.37 8.37 0 0 1-4.35 4.759l-5.793 2.7a8.367 8.367 0 0 1-6.442.274 8.384 8.384 0 0 1-3.93-2.944l-6.393 2.981 20.945 9.767a1.625 1.625 0 0 1-1.373 2.945l-23.417-10.92L9.064 66.34a1.625 1.625 0 1 1-1.374-2.945l20.853-9.724-6.3-2.938a8.383 8.383 0 0 1-3.93 2.945 8.37 8.37 0 0 1-6.442-.274l-9.132-4.258A4.75 4.75 0 0 1 .444 42.84l3.115-6.679a4.711 4.711 0 0 1 2.678-2.45 4.711 4.711 0 0 1 3.626.156l9.132 4.258a8.369 8.369 0 0 1 4.35 4.759c.583 1.6.67 3.294.271 4.903l8.772 4.09 8.864-4.133c-.948-3.831.913-7.933 4.621-9.663l5.793-2.7c4.212-1.965 9.237-.136 11.201 4.076a8.369 8.369 0 0 1 .274 6.443zm-42.85-1.905a5.14 5.14 0 0 0-2.67-2.925L8.49 36.812a1.482 1.482 0 0 0-1.142-.046 1.48 1.48 0 0 0-.844.769l-3.115 6.679a1.496 1.496 0 0 0 .723 1.986l9.132 4.258a5.143 5.143 0 0 0 3.957.165 5.14 5.14 0 0 0 2.926-2.67 5.142 5.142 0 0 0 .165-3.958zm39.631-3.164a5.185 5.185 0 0 0-6.883-2.505l-5.792 2.7a5.186 5.186 0 0 0-2.6 6.666c.043.065.178.355.2.43a5.142 5.142 0 0 0 2.82 2.457 5.14 5.14 0 0 0 3.958-.165l5.792-2.701a5.141 5.141 0 0 0 2.67-2.925 5.142 5.142 0 0 0-.165-3.957z" fill="#FFF"/></svg>