<svg width="26" height="22" viewBox="0 0 26 22" xmlns="http://www.w3.org/2000/svg"><title>ico-user</title><path d="M13 0C5.82 0 0 5.82 0 13c0 3.129 1.106 6 2.947 8.242.284-2.274 2.556-4.198 5.742-5.11 1.164 1.085 2.667 1.743 4.311 1.743 1.605 0 3.079-.625 4.231-1.664 3.213.991 5.436 3.027 5.51 5.394A12.949 12.949 0 0 0 26 13c0-7.18-5.82-13-13-13zm0 16.336c-.83 0-1.612-.228-2.306-.623-1.673-.953-2.826-2.901-2.826-5.15 0-3.184 2.302-5.774 5.132-5.774 2.83 0 5.132 2.59 5.132 5.773 0 2.285-1.188 4.257-2.903 5.193a4.64 4.64 0 0 1-2.229.58z" fill="#424036"/></svg>