<svg width="72" height="75" viewBox="0 0 72 75" xmlns="http://www.w3.org/2000/svg"><title>ico-recepten</title><path d="M63.093 3.119A1.827 1.827 0 0 1 65.676.535l.246.246a1.827 1.827 0 0 1-2.583 2.583l-.246-.245zm-.246 20.342a5.29 5.29 0 0 1 5.283 5.283 5.29 5.29 0 0 1-5.283 5.283 5.29 5.29 0 0 1-5.283-5.283 5.29 5.29 0 0 1 5.283-5.283zm0 3.654c-.898 0-1.63.73-1.63 1.63 0 .898.732 1.629 1.63 1.629.899 0 1.63-.731 1.63-1.63 0-.898-.731-1.63-1.63-1.63zm8.278 22.819v2.19a5.181 5.181 0 0 1-5.176 5.176h-1.522v9.849c0 4.33-3.523 7.853-7.853 7.853H15.301c-4.33 0-7.854-3.523-7.854-7.853v-9.85H5.925A5.181 5.181 0 0 1 .75 52.125v-2.19a5.181 5.181 0 0 1 5.175-5.176h1.522V39.36c0-1.009.818-1.827 1.827-1.827h53.327c1.008 0 1.826.818 1.826 1.827v5.398h1.522a5.181 5.181 0 0 1 5.176 5.176zM7.447 48.412H5.925c-.839 0-1.522.683-1.522 1.522v2.19c0 .84.683 1.522 1.522 1.522h1.522v-5.234zm53.327-7.225H11.1v25.962c0 2.316 1.884 4.2 4.2 4.2h41.273c2.316 0 4.2-1.884 4.2-4.2V41.187zm6.697 8.747c0-.84-.683-1.522-1.522-1.522h-1.522v5.234h1.522c.84 0 1.522-.683 1.522-1.522v-2.19zM58.033 14.64c.468 0 .935-.178 1.292-.534l.245-.246a1.827 1.827 0 1 0-2.582-2.584l-.246.246a1.827 1.827 0 0 0 1.291 3.118zm-15.14 19.28a1.827 1.827 0 0 0 3.653 0 2.62 2.62 0 0 1 2.616-2.617 2.62 2.62 0 0 1 2.618 2.617 1.827 1.827 0 0 0 3.653 0 6.278 6.278 0 0 0-6.27-6.27 6.278 6.278 0 0 0-6.27 6.27zm-34.12-2.734a1.827 1.827 0 0 1 1.357-2.198l19.845-4.692-.35-1.482a5.181 5.181 0 0 1 3.846-6.227l2.132-.504a5.182 5.182 0 0 1 6.227 3.846l.35 1.481 19.845-4.692a1.827 1.827 0 0 1 .84 3.556l-51.894 12.27a1.828 1.828 0 0 1-2.198-1.357zm24.408-9.212l.35 1.48 5.094-1.204-.35-1.48a1.525 1.525 0 0 0-1.832-1.132l-2.131.504a1.524 1.524 0 0 0-1.131 1.832z" fill="#EFEBDF"/></svg>