<svg width="24" height="24" viewBox="0 0 24 24" xmlns="http://www.w3.org/2000/svg"><title>ico-search</title><path d="M14.923 0c-4.616 0-8.371 3.751-8.371 8.364 0 1.515.41 2.933 1.12 4.16L.64 19.548a2.18 2.18 0 0 0 1.543 3.725c.56 0 1.118-.213 1.544-.64l7.031-7.024a8.315 8.315 0 0 0 4.165 1.118c4.618 0 8.374-3.751 8.374-8.363C23.297 3.75 19.539 0 14.923 0zM2.698 21.605a.725.725 0 0 1-1.03 0 .728.728 0 0 1 0-1.028l6.847-6.841c.314.372.658.716 1.03 1.03l-6.847 6.84zm12.225-6.332c-3.813 0-6.914-3.1-6.914-6.91 0-3.809 3.101-6.908 6.914-6.908 3.814 0 6.916 3.1 6.916 6.909-.001 3.81-3.102 6.909-6.916 6.909zm3.832-10.836a.728.728 0 0 0-1.03 1.028 4.103 4.103 0 0 1 0 5.797.727.727 0 1 0 1.03 1.028 5.555 5.555 0 0 0 0-7.853z"/></svg>