<svg baseProfile="basic" xmlns="http://www.w3.org/2000/svg" viewBox="0 0 333 250"><path d="M72.2 112.3c-3.5 0-6.3-2.8-6.3-6.3s2.8-6.3 6.3-6.3 6.3 2.8 6.3 6.3-2.8 6.3-6.3 6.3zm0-10.6c-2.4 0-4.3 1.9-4.3 4.3s1.9 4.3 4.3 4.3 4.3-1.9 4.3-4.3c.1-2.4-1.9-4.3-4.3-4.3z" fill="#efebdf"/><path d="M70.9.1v102.2c0 .4.3.7.7.7.4 0 .7-.3.7-.7V.1h-1.4zm189.5 112.2c-3.5 0-6.3-2.8-6.3-6.3s2.8-6.3 6.3-6.3 6.3 2.8 6.3 6.3-2.8 6.3-6.3 6.3zm0-10.6c-2.4 0-4.3 1.9-4.3 4.3s1.9 4.3 4.3 4.3 4.3-1.9 4.3-4.3-1.9-4.3-4.3-4.3z" fill="#efebdf"/><path d="M260.5.1v102.2c0 .4.3.7.7.7.4 0 .7-.3.7-.7V.1h-1.4z" fill="#efebdf"/><path d="M166.3 249.8c1.7 0 61.2-21.8 74.6-10.4 3.9-3.3 9.2-5.1 14.7-4.9 6.9.2 14 2.8 20.9 3.4 12.8 1.3 24.6-1.5 28.8-12.9 1.9-5 2.3-10 2.1-15 6.5-4.5 10.8-10.4 11.7-17 8.4-5.3 13.6-12.9 13.6-21.3s-5.2-16-13.6-21.3c-.9-6.6-5.2-12.6-11.7-17 .2-5-.2-10.1-2.1-15-4.3-11.3-16-14.1-28.8-12.9-6.9.7-14.1 3.2-20.9 3.4-5.5.2-10.8-1.6-14.7-4.9-13.4 11.3-72.9-10.4-74.6-10.4-1.7 0-61.2 21.8-74.6 10.4-3.9 3.3-9.2 5.1-14.7 4.9-6.9-.2-14-2.8-20.9-3.4-12.8-1.3-24.6 1.5-28.8 12.9-1.9 5-2.3 10-2.1 15.1-6.5 4.5-10.8 10.4-11.7 17-8.4 5.3-13.6 12.9-13.6 21.3s5.2 16 13.6 21.3c.9 6.6 5.2 12.6 11.7 17-.2 5 .2 10.1 2.1 15 4.3 11.3 16 14.1 28.8 12.9 6.9-.7 14.1-3.2 20.9-3.4 5.5-.2 10.8 1.6 14.7 4.9 13.4-11.4 73 10.3 74.6 10.3z" fill="#efebdf"/><path d="M166.3 250.1c-.3 0-1.1-.2-4.8-1.4-10.6-3.4-38.7-12.3-56.5-12.3-6.1 0-10.4 1.1-12.9 3.2l-.4.3-.4-.3c-3.8-3.2-9-5-14.3-4.8-3.7.1-7.7 1-11.5 1.8-3.1.7-6.3 1.4-9.4 1.7-1.9.2-3.8.3-5.5.3-12.3 0-20.6-4.6-23.9-13.3-1.6-4.4-2.3-9.1-2.1-15-6.6-4.6-10.8-10.6-11.7-17-8.8-5.6-13.6-13.2-13.6-21.4s4.8-15.8 13.6-21.4c.9-6.4 5-12.4 11.7-17-.2-5.9.5-10.7 2.1-15 3.3-8.7 11.6-13.3 23.9-13.3 1.8 0 3.6.1 5.5.3 3.1.3 6.3 1 9.4 1.7 3.8.8 7.7 1.7 11.5 1.8 5.4.2 10.5-1.5 14.3-4.8l.4-.3.4.3c2.5 2.1 6.8 3.2 12.9 3.2 17.8 0 45.9-8.9 56.5-12.3 3.7-1.2 4.5-1.4 4.8-1.4.3 0 1.1.2 4.8 1.4 10.6 3.4 38.7 12.3 56.5 12.3 6.1 0 10.4-1.1 12.9-3.2l.4-.3.4.3c3.8 3.2 9 5 14.3 4.8 3.7-.1 7.7-1 11.5-1.8 3.1-.7 6.3-1.3 9.4-1.7 1.9-.2 3.8-.3 5.5-.3 12.3 0 20.6 4.6 23.9 13.3 1.6 4.4 2.3 9.1 2.1 15 6.6 4.6 10.8 10.6 11.7 17 8.8 5.6 13.6 13.2 13.6 21.4s-4.8 15.8-13.6 21.4c-.9 6.4-5 12.4-11.7 17 .2 5.9-.5 10.7-2.1 15-3.3 8.7-11.6 13.3-23.9 13.3-1.8 0-3.6-.1-5.5-.3-3.1-.3-6.3-1-9.4-1.7-3.8-.8-7.7-1.7-11.5-1.8-5.4-.2-10.5 1.5-14.3 4.8l-.4.3-.4-.3c-2.5-2.1-6.8-3.2-12.9-3.2-17.8 0-45.9 8.9-56.5 12.3-3.7 1.2-4.4 1.4-4.8 1.4zM105 235.9c18 0 46.3 9 56.9 12.4 2.1.7 3.9 1.2 4.4 1.3.4-.1 2.3-.7 4.4-1.3 10.7-3.4 38.9-12.4 56.9-12.4 6.1 0 10.6 1 13.3 3.1 4-3.2 9.2-4.9 14.8-4.7 3.9.1 7.9 1 11.7 1.8 3.1.7 6.2 1.3 9.2 1.6 1.9.2 3.7.3 5.4.3 12 0 19.7-4.3 23-12.9 1.6-4.3 2.3-9.1 2.1-15v-.1l.1-.1c6.6-4.6 10.7-10.6 11.6-16.9v-.1l.1-.1c8.7-5.5 13.5-13 13.5-21.1 0-8.1-4.8-15.6-13.5-21.1l-.1-.1v-.1c-.8-6.3-4.9-12.3-11.6-16.9l-.1-.1v-.1c.2-5.9-.5-10.7-2.1-15-3.2-8.6-11-12.9-23-12.9-1.7 0-3.5.1-5.4.3-3 .3-6.2 1-9.2 1.6-3.9.8-7.9 1.7-11.7 1.8-5.5.2-10.8-1.5-14.8-4.7-2.7 2-7.2 3.1-13.3 3.1-18 0-46.3-9-56.9-12.4-2.1-.7-3.9-1.2-4.4-1.3-.4.1-2.3.7-4.4 1.3-10.7 3.4-38.9 12.4-56.9 12.4-6.1 0-10.6-1-13.3-3.1-4 3.2-9.2 4.9-14.8 4.7-3.9-.1-7.9-1-11.7-1.8-3.1-.7-6.2-1.3-9.2-1.6-1.9-.2-3.7-.3-5.4-.3-12 0-19.7 4.3-23 12.9-1.6 4.3-2.3 9.1-2.1 15v.1l-.1.1c-6.6 4.6-10.7 10.6-11.6 16.9v.1l-.1.1C5 156.1.2 163.6.2 171.7c0 8.1 4.8 15.6 13.5 21.1l.1.1v.1c.8 6.3 4.9 12.3 11.6 16.9l.1.1v.1c-.2 5.9.5 10.7 2.1 15 3.2 8.6 11 12.9 23 12.9 1.7 0 3.5-.1 5.4-.3 3-.3 6.2-1 9.2-1.6 3.9-.8 7.9-1.7 11.7-1.8 5.5-.2 10.8 1.5 14.8 4.7 2.7-2.1 7.2-3.1 13.3-3.1z" fill="#c10e1a"/><path d="M33.7 135.1l-2.1 1.4c-5.5 3.8-9 8.8-9.7 14.2l-.2 1.7-2 1.3c-7.2 4.6-11.4 11.1-11.4 18 0 6.8 4.1 13.3 11.4 18l2 1.3.2 1.7c.7 5.4 4.1 10.4 9.7 14.2l2.1 1.4-.1 1.9v2c0 4.6.6 8.3 1.9 11.8 1.5 4 4.1 6.7 7.6 8.1 2.9 1.1 6.8 1.4 11.6 1 2.3-.2 5-.8 7.8-1.4 4.4-.9 9-1.9 14.1-2.1 5.7-.2 11.2.9 16 3.1 3.6-1 8-1.6 12.9-1.5 6.4 0 13.9.9 22.8 2.8 14.9 3 30.2 7.8 37.5 10.2l.5.2.5-.2c7.3-2.3 22.5-7.2 37.5-10.2 9-1.8 16.4-2.7 22.8-2.8 4.9 0 9.3.5 12.9 1.5 4.8-2.2 10.3-3.3 16-3.1 5.1.2 9.6 1.1 14.1 2.1 2.8.6 5.5 1.2 7.8 1.4 4.8.5 8.7.1 11.6-1 3.5-1.4 6.1-4.1 7.6-8.1 1.3-3.5 1.9-7.3 1.9-11.8v-2l-.1-1.9 2.1-1.4c5.5-3.8 9-8.9 9.7-14.2l.2-1.7 2-1.3c7.2-4.6 11.4-11.1 11.4-17.9 0-6.8-4.1-13.4-11.4-18l-2-1.3-.2-1.7c-.7-5.4-4.1-10.4-9.7-14.2l-2.1-1.4.1-1.9v-2c0-4.6-.6-8.3-1.9-11.8-1.5-4-4.1-6.7-7.6-8.1-2.9-1.1-6.8-1.4-11.6-1-2.3.2-5 .8-7.8 1.4-4.4.9-9 1.9-14.1 2.1-5.7.2-11.2-.9-16-3.1-3.6 1-8 1.5-12.9 1.5-6.4 0-13.9-.9-22.8-2.8-14.9-3-30.2-7.9-37.5-10.2l-.5-.2c-.2.1-.4.1-.5.2-7.3 2.3-22.5 7.2-37.5 10.2-9 1.8-16.4 2.7-22.8 2.8-4.9 0-9.3-.5-12.9-1.5-4.8 2.2-10.3 3.3-16 3.1-5.1-.2-9.6-1.1-14.1-2.1-2.8-.6-5.5-1.2-7.8-1.4-4.8-.5-8.7-.1-11.6 1-3.5 1.4-6.1 4.1-7.6 8.1-1.3 3.5-1.9 7.3-1.9 11.8v2l.1 1.8z" fill="#edeced"/><path d="M33.7 135.1l-2.1 1.4c-5.5 3.8-9 8.8-9.7 14.2l-.2 1.7-2 1.3c-7.2 4.6-11.4 11.1-11.4 18 0 6.8 4.1 13.3 11.4 18l2 1.3.2 1.7c.7 5.4 4.1 10.4 9.7 14.2l2.1 1.4-.1 1.9v2c0 4.6.6 8.3 1.9 11.8 1.5 4 4.1 6.7 7.6 8.1 2.9 1.1 6.8 1.4 11.6 1 2.3-.2 5-.8 7.8-1.4 4.4-.9 9-1.9 14.1-2.1 5.7-.2 11.2.9 16 3.1 3.6-1 8-1.6 12.9-1.5 6.4 0 13.9.9 22.8 2.8 14.9 3 30.2 7.8 37.5 10.2l.5.2.5-.2c7.3-2.3 22.5-7.2 37.5-10.2 9-1.8 16.4-2.7 22.8-2.8 4.9 0 9.3.5 12.9 1.5 4.8-2.2 10.3-3.3 16-3.1 5.1.2 9.6 1.1 14.1 2.1 2.8.6 5.5 1.2 7.8 1.4 4.8.5 8.7.1 11.6-1 3.5-1.4 6.1-4.1 7.6-8.1 1.3-3.5 1.9-7.3 1.9-11.8v-2l-.1-1.9 2.1-1.4c5.5-3.8 9-8.9 9.7-14.2l.2-1.7 2-1.3c7.2-4.6 11.4-11.1 11.4-17.9 0-6.8-4.1-13.4-11.4-18l-2-1.3-.2-1.7c-.7-5.4-4.1-10.4-9.7-14.2l-2.1-1.4.1-1.9v-2c0-4.6-.6-8.3-1.9-11.8-1.5-4-4.1-6.7-7.6-8.1-2.9-1.1-6.8-1.4-11.6-1-2.3.2-5 .8-7.8 1.4-4.4.9-9 1.9-14.1 2.1-5.7.2-11.2-.9-16-3.1-3.6 1-8 1.5-12.9 1.5-6.4 0-13.9-.9-22.8-2.8-14.9-3-30.2-7.9-37.5-10.2l-.5-.2c-.2.1-.4.1-.5.2-7.3 2.3-22.5 7.2-37.5 10.2-9 1.8-16.4 2.7-22.8 2.8-4.9 0-9.3-.5-12.9-1.5-4.8 2.2-10.3 3.3-16 3.1-5.1-.2-9.6-1.1-14.1-2.1-2.8-.6-5.5-1.2-7.8-1.4-4.8-.5-8.7-.1-11.6 1-3.5 1.4-6.1 4.1-7.6 8.1-1.3 3.5-1.9 7.3-1.9 11.8v2l.1 1.8z" fill="#424036"/><path d="M166.3 242.3l-.2-.1c-6.5-2.1-21.7-6.9-36.8-9.9-9.3-1.9-17-2.8-23.7-2.9-4.6 0-8.7.4-12.3 1.2l-.3.1-.2-.1c-4.9-2-10.6-3-16.3-2.8-5.5.2-10.3 1.2-14.9 2.2-2.7.6-5.3 1.1-7.3 1.3-4.1.4-7.3.2-9.5-.7-2.8-1.1-5-3.5-6.4-7-1.3-3.4-1.9-7-1.9-11.5v-2l.1-2.5-2.8-1.9c-5.1-3.5-8.3-8.2-9-13.2l-.3-2.3-2.7-1.7c-6.7-4.3-10.6-10.4-10.6-16.8s3.9-12.5 10.6-16.8l2.7-1.7.3-2.3c.7-5 3.9-9.7 9-13.2l2.8-1.9-.1-2.5v-2c0-4.5.6-8.1 1.9-11.5 1.3-3.5 3.5-5.9 6.4-7 2.2-.9 5.4-1.1 9.5-.7 2 .2 4.6.7 7.3 1.3 4.6 1 9.4 2 14.9 2.2 5.7.2 11.4-.8 16.3-2.8l.2-.1.3.1c3.6.8 7.8 1.2 12.3 1.2 6.7 0 14.5-1 23.7-2.9 13.4-2.7 26.7-6.7 36.8-9.9l.2-.1.2.1c10.1 3.2 23.4 7.2 36.8 9.9 9.3 1.9 17 2.8 23.7 2.9 4.6 0 8.7-.4 12.3-1.2l.3-.1.2.1c4.9 2 10.6 3 16.3 2.8 5.5-.2 10.3-1.2 14.9-2.2 2.7-.6 5.3-1.1 7.3-1.3 4-.4 7.3-.2 9.5.7 2.8 1.1 5 3.5 6.4 7 1.3 3.4 1.9 7 1.9 11.5v2l-.1 2.5 2.8 1.9c5.1 3.5 8.3 8.2 9 13.2l.3 2.3 2.7 1.7c6.7 4.3 10.6 10.4 10.6 16.8s-3.9 12.5-10.6 16.8l-2.7 1.7-.3 2.3c-.7 5-3.9 9.7-9 13.2l-2.8 1.9.1 2.5v2c0 4.5-.6 8.1-1.9 11.5-1.3 3.5-3.5 5.9-6.4 7-2.2.9-5.4 1.1-9.5.7-2-.2-4.6-.7-7.3-1.3-4.6-1-9.4-2-14.9-2.2-5.7-.2-11.4.8-16.3 2.8l-.2.1-.3-.1c-3.6-.8-7.8-1.2-12.3-1.2-6.7 0-14.5 1-23.7 2.9-13.4 2.7-26.7 6.7-36.8 9.9l-.2.1zM105 228.9h.5c6.8 0 14.7 1 24.1 2.9 13.3 2.7 26.6 6.7 36.7 9.9 10.1-3.2 23.4-7.2 36.7-9.9 9.4-1.9 17.2-2.8 24.1-2.9 4.6 0 8.8.4 12.5 1.2 5.1-2 10.9-3 16.8-2.8 5.7.2 10.5 1.2 15.2 2.2 2.7.6 5.2 1.1 7.1 1.3 3.8.4 6.8.2 8.8-.6 2.6-1 4.7-3.3 5.9-6.7 1.3-3.3 1.8-6.9 1.8-11.4v-2l-.1-2.8 3.1-2.1c5-3.4 8.1-8 8.8-12.9l.3-2.5 2.9-1.8c6.6-4.2 10.3-10.2 10.3-16.4 0-6.2-3.8-12.2-10.3-16.4l-2.9-1.8-.3-2.5c-.7-4.9-3.8-9.5-8.8-12.9l-3.1-2.1.1-2.8v-2c0-4.4-.6-8-1.8-11.4-1.3-3.3-3.3-5.6-5.9-6.7-2-.8-5-1-8.8-.6-1.9.2-4.4.7-7.1 1.3-4.7 1-9.6 2.1-15.2 2.2-5.9.2-11.7-.8-16.8-2.8-3.7.8-7.9 1.2-12.5 1.2-6.8 0-14.7-1-24-2.9-13.3-2.7-26.6-6.7-36.7-9.9-10.1 3.2-23.4 7.2-36.7 9.9-9.4 1.9-17.2 2.8-24 2.9-4.6 0-8.8-.4-12.5-1.2-5.1 2-10.9 3-16.8 2.8-5.7-.2-10.5-1.2-15.2-2.2-2.7-.6-5.2-1.1-7.1-1.3-3.8-.4-6.8-.2-8.8.6-2.6 1-4.7 3.3-5.9 6.7-1.3 3.3-1.8 6.9-1.8 11.4v2l.1 2.8-3 2.1c-5 3.4-8.1 8-8.8 12.9l-.3 2.5-2.9 1.8c-6.6 4.2-10.3 10.2-10.3 16.4s3.8 12.2 10.3 16.4l2.9 1.8.3 2.5c.6 4.9 3.8 9.5 8.8 12.9l3 2.1-.1 2.8v2c0 4.4.6 8 1.8 11.4 1.3 3.3 3.3 5.6 5.9 6.7 2 .8 5 1 8.8.6 1.9-.2 4.4-.7 7.1-1.3 4.7-1 9.6-2.1 15.2-2.2 5.9-.2 11.7.8 16.8 2.8 3.4-.8 7.4-1.2 11.8-1.2z" fill="#c10e1a"/><path d="M264.1 190.5H69l5.6 11.8c.1.2.1.4 0 .6L69 214.7h195.1l-5.6-11.8c-.1-.2-.1-.4 0-.6l5.6-11.8z" fill="#c10e1a"/><path d="M90.3 208.3c0 1.2-1 2.3-2.3 2.3h-3.4c-1.2 0-2.3-1-2.3-2.3V197c0-1.2 1-2.3 2.3-2.3H88c1.2 0 2.3 1 2.3 2.3v2.3H88V197h-3.4v11.3H88V206h2.3v2.3zm10.2 0c0 1.2-1 2.3-2.3 2.3h-3.4c-1.2 0-2.3-1-2.3-2.3v-13.6h2.3v13.6h3.4v-13.6h2.3v13.6zm9 2.3h-6.8v-15.8h2.3v13.6h4.5v2.2zm4 0h-2.3v-15.8h2.3v15.8zm10.2 0h-2l-3.7-10.3v10.3h-2.3v-15.8h2.4l3.2 9.3v-9.3h2.3v15.8zm11 0h-2.4l-.5-2.3h-3.9l-.5 2.3H125l3.4-15.8h2.8l3.5 15.8zm-3.3-4.6l-1.5-7.4-1.6 7.4h3.1zm6.9 4.6H136v-15.8h2.3v15.8zm10.2 0h-2.4l-1.5-6.3h-1.8v6.3h-2.3v-15.8h5.6c1.2 0 2.3 1 2.3 2.3v5c0 1.2-.6 1.9-1.8 2.1l1.9 6.4zm-2.3-8.6v-5h-3.4v5h3.4zm11.3 8.6h-6.8v-15.8h6.8v2.3H153v4.1h3.4v2.3H153v5h4.5v2.1zm14.4-2.3c0 1.2-1 2.3-2.3 2.3h-3.4c-1.2 0-2.3-1-2.3-2.3V197c0-1.2 1-2.3 2.3-2.3h3.4c1.2 0 2.3 1 2.3 2.3v2.3h-2.3V197h-3.4v11.3h3.4V206h2.3v2.3zm7.9 2.3h-3.4c-1.2 0-2.3-1-2.3-2.3V197c0-1.2 1-2.3 2.3-2.3h3.4c1.2 0 2.3 1 2.3 2.3v11.3c0 1.2-1 2.3-2.3 2.3zm0-2.3V197h-3.4v11.3h3.4zm15.1 2.3h-2.3v-10l-2.7 10h-.7l-2.7-10v10h-2.3v-15.8h2.8l2.4 9.3 2.4-9.3h2.8v15.8zm12.8 0h-2.3v-10l-2.7 10h-.7l-2.7-10v10H197v-15.8h2.8l2.4 9.3 2.4-9.3h2.8v15.8zm10.2-2.3c0 1.2-1 2.3-2.3 2.3h-3.4c-1.2 0-2.3-1-2.3-2.3v-13.6h2.3v13.6h3.4v-13.6h2.3v13.6zm10.2 2.3h-2l-3.7-10.3v10.3h-2.3v-15.8h2.4l3.2 9.3v-9.3h2.3v15.8zm4.5 0h-2.3v-15.8h2.3v15.8zm9.6-13.6h-2.8v13.5h-2.3V197h-2.8v-2.3h7.9v2.3zm9.6-2.3l-3.4 9.7v6.1h-2.3v-6.1l-3.4-9.7h2.5l2 7.2 2-7.2h2.6z" fill="#efebdf"/><path d="M135.2 64.3l10.3 4.8c1.4.7 3 .7 4.4.2 1.5-.5 2.6-1.6 3.3-3 .7-1.4.7-3 .2-4.4s-1.6-2.6-3-3.3l-10.3-4.8c-.4-.2-.9-.2-1.3-.1-.4.2-.8.5-.9.9l-3.5 7.5c-.4.8 0 1.8.8 2.2zm3.6-7.6c.4-.9 1.5-1.3 2.4-.9l8.1 3.8c.9.4 1.3 1.5.9 2.4-.3.7-1 1.1-1.7 1.1-.3 0-.5-.1-.8-.2l-8.1-3.8c-.8-.4-1.2-1.5-.8-2.4zm-2.2 4.6c.4-.9 1.5-1.3 2.4-.9l8.1 3.8c.9.4 1.3 1.5.9 2.4-.3.7-1 1.1-1.7 1.1-.3 0-.5-.1-.8-.2l-8.1-3.8c-.8-.4-1.2-1.5-.8-2.4zm44.3 5.1c.7 1.3 1.8 2.3 3.2 2.8 1.5.5 3 .5 4.4-.2l6.5-3c1.4-.7 2.5-1.8 3-3.3.5-1.5.5-3-.2-4.4-1.4-2.9-4.8-4.2-7.7-2.8l-6.5 3c-2.8 1.3-4.1 4.6-2.9 7.5.1 0 .2.3.2.4zm2.3-1.5c.3-1 1.3-1.5 2.3-1.3.7.2 1.3.2 1.8-.1l4.5-2.1c.5-.2.9-.7 1.2-1.3.4-.9 1.5-1.3 2.4-.9.9.4 1.3 1.5.9 2.4-.6 1.4-1.7 2.5-3 3.2l-4.5 2.1c-.8.4-1.6.5-2.5.5-.6 0-1.2-.1-1.8-.3-1-.2-1.5-1.2-1.3-2.2z" fill="none"/><path d="M133.7 67.6l10.3 4.8c2.3 1.1 4.9 1.2 7.2.3 1.8-.7 3.3-1.8 4.4-3.3l7.1 3.3-23.4 10.9c-.9.4-1.3 1.5-.9 2.4.4.9 1.5 1.3 2.4.9L167 74.7 193.3 87c.2.1.5.2.8.2.7 0 1.3-.4 1.7-1.1.4-.9 0-2-.9-2.4l-23.5-11 7.2-3.3c1.1 1.5 2.6 2.7 4.4 3.3 2.4.9 4.9.8 7.2-.3l6.5-3c2.3-1.1 4-3 4.9-5.3.9-2.4.8-4.9-.3-7.2-2.2-4.7-7.8-6.8-12.6-4.6l-6.5 3c-4.2 1.9-6.3 6.5-5.2 10.8l-10 4.6-9.8-4.6c.4-1.8.3-3.7-.3-5.5-.9-2.4-2.6-4.3-4.9-5.3l-10.3-4.8c-1.3-.6-2.7-.7-4.1-.2-1.3.5-2.4 1.5-3 2.7l-3.5 7.5c-1.3 2.6-.1 5.8 2.6 7.1zm49.9-9.1l6.5-3c2.9-1.4 6.4-.1 7.7 2.8.7 1.4.7 3 .2 4.4-.5 1.5-1.6 2.6-3 3.3l-6.5 3c-1.4.7-3 .7-4.4.2-1.4-.5-2.5-1.5-3.2-2.8 0-.1-.2-.4-.2-.5-1.2-2.8.1-6.1 2.9-7.4zM134.4 62l3.5-7.5c.2-.4.5-.7.9-.9.4-.2.9-.1 1.3.1l10.3 4.8c1.4.7 2.5 1.8 3 3.3s.5 3-.2 4.4c-.7 1.4-1.8 2.5-3.3 3-1.5.5-3 .5-4.4-.2l-10.3-4.8c-.8-.3-1.2-1.3-.8-2.2z" fill="#efebdf"/><path d="M137.5 63.7l8.1 3.8c.2.1.5.2.8.2.7 0 1.3-.4 1.7-1.1.4-.9 0-2-.9-2.4l-8.1-3.8c-.9-.4-2 0-2.4.9-.5.9-.1 2 .8 2.4zm48.8-15.1c1 0 1.8-.8 1.8-1.8v-13h.4c5.9 0 10.7-4.8 10.7-10.7 0-5.9-4.8-10.7-10.7-10.7h-44.4c-5.9 0-10.7 4.8-10.7 10.7s4.8 10.7 10.7 10.7h.4v13c0 1 .8 1.8 1.8 1.8s1.8-.8 1.8-1.8v-13h18.2c5.9 0 10.7-4.8 10.7-10.7 0-1-.8-1.8-1.8-1.8s-1.8.8-1.8 1.8c0 3.9-3.2 7.1-7.1 7.1h-22.2c-3.9 0-7.1-3.2-7.1-7.1 0-3.9 3.2-7.1 7.1-7.1h10.3c-1.6 1.9-2.6 4.3-2.6 6.9 0 1 .8 1.8 1.8 1.8s1.8-.8 1.8-1.8c0-3.8 3.2-6.9 7.1-6.9h26c3.9 0 7.1 3.2 7.1 7.1 0 3.9-3.2 7.1-7.1 7.1h-8.9c-1 0-1.8.8-1.8 1.8s.8 1.8 1.8 1.8h4.9v13c0 1 .8 1.8 1.8 1.8zm-46.6 10.5l8.1 3.8c.2.1.5.2.8.2.7 0 1.3-.4 1.7-1.1.4-.9 0-2-.9-2.4l-8.1-3.8c-.9-.4-2 0-2.4.9-.5.9-.1 2 .8 2.4zm44.8 8c.6.2 1.2.3 1.8.3.9 0 1.7-.2 2.5-.5l4.5-2.1c1.3-.6 2.4-1.7 3-3.2.4-.9 0-2-.9-2.4-.9-.4-2 0-2.4.9-.3.6-.7 1.1-1.2 1.3l-4.5 2.1c-.5.2-1.1.3-1.8.1-1-.3-2 .3-2.3 1.3-.2 1 .3 2 1.3 2.2z" fill="#efebdf"/><g><path d="M48.6 181.1c-12.8 0-16.8-9.6-16.8-18.9 0-15.7 9.1-24.1 17.9-24.1 3.8 0 6.2 2.2 7.2 3.9 1.9-.3 4.2-.4 5.1-.2.6.1.6.4.3.7-.5.7-2.5 2.8-2.5 7.2 0 4 1.5 5.9 2.3 6.6 0 1-2.4 3.8-6.4 3.8-2.9 0-5.4-2.4-5.4-7.4s1.6-7.5 2.6-9.1c0-1.2-.4-2.9-2.7-2.9-3.3 0-7.5 5.5-7.5 22.1 0 9 2.6 14.7 9 14.7 5.3 0 6.6-3.6 6.6-6.4 0-.9-.1-1.8-.3-2.4.5-1.3 3.9-.2 4.3 1.3 0 3.3-1.6 11.1-13.7 11.1zm33.6-5.5c-2.1 3.1-4.5 5.4-8.1 5.4-4.5 0-10.2-3.3-10.2-15.7 0-16.2 6.5-25.7 11.4-25.7 2.5 0 5.3 1.3 5.3 7.6 0 4.8-2.5 15.3-7.9 18.5.2 5.9 1.5 10.6 3.7 10.6 1.7 0 3.4-1.7 5-4.8 1.4-2.7 2.1-4.7 2.6-5.9.3-.7.5-1.1.6-1.1.5 0 .6 1.6.6 2.5.1 1.6-.9 5.5-3 8.6zm-5.1-31.1c-1.5 0-4.4 7.5-4.4 17.7v.4c3.9-3.9 5.3-12.4 5.3-16.8.1-1-.4-1.3-.9-1.3z" fill="#c10e1a"/><path d="M114.5 175.4c-1.9 2.8-4.2 5.6-9.1 5.6-3.3 0-6-1.5-7.3-4.8-1.2 2.3-3.8 4.8-7.8 4.8-4.6 0-8.2-3-8.2-9.8 0-3.1.8-5.8.8-7.4 0-.5-.6-1-1-1.6-.4-.5-.6-1-.6-1.5 0-1.7 5.9-3.7 10-3.7 1.9 0 3.1.5 3.1 1.4 0 2-1.2 5-2.2 8.5-.9 3.1-1.6 5.4-1.6 8.2 0 1.5.8 2.8 2 2.8 3.5 0 5.7-10.5 5.7-15.7 0-.4-.6-1-1-1.6-.4-.5-.6-1.1-.6-1.6 0-1.6 5.8-3.7 10-3.7 1.9 0 3 .5 3 1.3 0 2-1.1 5.1-2.2 8.5-.9 3.1-1.8 6.5-1.8 9.9 0 1.5.8 2.8 2 2.8 2.2 0 4.2-3 5.3-4.9 1.8-3.2 3.3-7.2 3.5-7.8.2-.4.3-.6.4-.6.4-.1.6 1.1.6 2.3 0 2.7-1.6 6.6-3 8.6z" fill="#c10e1a"/><path d="M137.8 173.4c-1 1.8-2.3 3.9-5.5 3.9-.8 0-1.8-.2-2.6-.6-1.6 2.4-3.5 4.3-6.6 4.3-7 0-9.9-5.3-9.9-15 0-5 2.3-17.8 1.8-19.5-.2-.4-.6-.9-1.1-1.6-.3-.5-.6-1.1-.6-1.6 0-1.6 6.1-3.7 10.2-3.7 2.3 0 3.1.9 3.1 2 0 .8-.6 1.6-.8 2.1-1.6 3.2-5 12.8-5 24.6 0 4.8 1.5 8.4 3.8 8.4 1 0 1.9-.5 2.4-1.2-2.3-2-4.1-5.4-4.1-10.4 0-4.7 1.9-9.9 4.7-9.9 2.9 0 4.7 4.8 4.7 10.6 0 3-.6 5.8-1.5 8.2.5.3.9.5 1.3.5 2 0 3.1-2.2 4-3.9.8-1.6 1.7-4.2 2.1-5.3.2-.4.4-.7.5-.7.4 0 .7 1.1.7 2.2.4 1.8-.6 4.8-1.6 6.6z" fill="#c10e1a"/><path d="M153.5 181.1c-12.8 0-16.8-9.6-16.8-18.9 0-15.7 9.1-24.1 17.9-24.1 3.8 0 6.2 2.2 7.2 3.9 1.9-.3 4.2-.4 5.1-.2.6.1.6.4.3.7-.5.7-2.5 2.8-2.5 7.2 0 4 1.5 5.9 2.3 6.6 0 1-2.4 3.8-6.4 3.8-2.9 0-5.4-2.4-5.4-7.4s1.6-7.5 2.6-9.1c0-1.2-.4-2.9-2.7-2.9-3.3 0-7.5 5.5-7.5 22.1 0 9 2.6 14.7 9 14.7 5.3 0 6.6-3.6 6.6-6.4 0-.9-.1-1.8-.3-2.4.5-1.3 3.9-.2 4.3 1.3.1 3.3-1.5 11.1-13.7 11.1zm48.9-5.7c-1.9 2.8-4.2 5.6-9.1 5.6-3.3 0-6-1.5-7.3-4.8-1.2 2.3-3.8 4.8-7.8 4.8-4.6 0-8.2-3-8.2-9.8 0-3.1.8-5.8.8-7.4 0-.5-.6-1-1-1.6-.4-.5-.6-1-.6-1.5 0-1.7 5.9-3.7 10-3.7 1.9 0 3.1.5 3.1 1.4 0 2-1.2 5-2.2 8.5-.9 3.1-1.6 5.4-1.6 8.2 0 1.5.8 2.8 2 2.8 3.5 0 5.7-10.5 5.7-15.7 0-.4-.6-1-1-1.6-.4-.5-.6-1.1-.6-1.6 0-1.6 5.8-3.7 10-3.7 1.9 0 3 .5 3 1.3 0 2-1.1 5.1-2.2 8.5-.9 3.1-1.8 6.5-1.8 9.9 0 1.5.8 2.8 2 2.8 2.2 0 4.2-3 5.3-4.9 1.8-3.2 3.3-7.2 3.5-7.8.2-.4.3-.6.4-.6.4-.1.6 1.1.6 2.3 0 2.7-1.7 6.6-3 8.6z" fill="#efebdf"/><path d="M218.8 175.4c-1.9 2.8-4.2 5.6-9.1 5.6-4.6 0-8.1-3-8.1-9.8 0-3.1.9-7.5.9-9.1 0-.4-.6-1-1-1.6-.4-.5-.6-1.1-.6-1.6 0-1.6 5.9-3.7 10-3.7 1.9 0 3.1.5 3.1 1.3 0 2-1.2 5.1-2.2 8.5-.9 3.1-1.8 6.5-1.8 9.9 0 1.5.8 2.8 2.1 2.8 2.1 0 4.2-3 5.3-4.9 1.9-3.2 3.3-7.2 3.5-7.8.2-.4.3-.6.4-.6.4-.1.6 1.1.6 2.3-.1 2.8-1.7 6.7-3.1 8.7zm-11.7-23.1c-2 0-4.6-1-4.6-3.4 0-3.3 4.4-5.3 7.2-5.3 2.1 0 4.7.9 4.7 3.4 0 3.3-4.4 5.3-7.3 5.3z" fill="#efebdf"/><path d="M225.8 181c-4.5 0-7.1-2.2-7.1-5 0-3 2.4-4.6 4.5-4.6 2 0 2.8 1.3 2.8 1.7s-.2.7-.5.7c-.4 0-.9-.4-1.7-.4-1.1 0-2.2 1.1-2.2 2.5 0 1.5.8 2.8 3.1 2.8 2.1 0 4.6-2.1 4.6-6.9 0-3.6-3.1-5.7-5.7-8.2-.8 2.5-2 5.7-3 8-.2.5-.5.7-.7.7-.5 0-.9-.9-.9-2 0-.5.1-1.1.3-1.6.7-1.8 1.8-4.8 2.5-7.3-.9-1.3-1.5-2.6-1.5-4.4 0-2.5 5.4-5.6 7.2-5.6.8 0 1.2.6 1.2 1.4 0 .9-.5 1.4-.5 2.8 0 3.6 10.7 6.7 10.7 14.4 0 7.2-5.7 11-13.1 11zm32.2-5.6c-1.9 2.8-4.2 5.6-9.1 5.6-4.6 0-8.1-3-8.1-9.8 0-3.1.9-7.5.9-9.1 0-.4-.6-1-1-1.6-.4-.5-.6-1.1-.6-1.6 0-1.6 5.9-3.7 10-3.7 1.9 0 3.1.5 3.1 1.3 0 2-1.2 5.1-2.2 8.5-.9 3.1-1.8 6.5-1.8 9.9 0 1.5.8 2.8 2.1 2.8 2.1 0 4.2-3 5.3-4.9 1.9-3.2 3.3-7.2 3.5-7.8.2-.4.3-.6.4-.6.4-.1.6 1.1.6 2.3-.1 2.8-1.8 6.7-3.1 8.7zm-11.7-23.1c-2 0-4.6-1-4.6-3.4 0-3.3 4.4-5.3 7.2-5.3 2.1 0 4.7.9 4.7 3.4 0 3.3-4.5 5.3-7.3 5.3z" fill="#efebdf"/><path d="M287.3 175.4c-1.9 2.8-3.4 5.6-8.3 5.6-4.6 0-7.4-3-7.4-9.8 0-3.1.8-7.7 1.2-8.6.2-.3-.3-.5-.6-.1-1.6 1.9-2.6 4.2-3.2 7-.5 2.3-.7 4.9-.7 8 0 2.3-.5 3-1.8 3-2.5 0-5.6-1.5-7-3.2-.8-.9-.7-1.5-.7-2.7-.1-5-.3-10.8-.8-12.4-.1-.4-.6-1-1-1.6-.4-.5-.6-1.1-.6-1.6 0-1.6 5.1-3.7 9.2-3.7 1.9 0 3.1.5 3.1 1.3 0 3.1-.6 4.6-.8 8.7 1.9-3.9 6.4-9.5 7.9-9.5 2.6 0 5.9 3.8 5.9 5.9 0 1.4-2.4 6.4-2.4 13.3 0 2.1.7 2.8 1.6 2.8 2.3 0 3.8-3 5-4.9 1.9-3.2 3.3-7.2 3.5-7.8.2-.4.3-.6.4-.6.4-.1.6 1.1.6 2.3 0 2.7-1.7 6.6-3.1 8.6z" fill="#efebdf"/><path d="M308.6 174.8c-1.5 2.6-4.5 6.3-10.9 6.3-6.7 0-12.1-3.5-12.1-11.8 0-9.3 5.9-14.2 9.9-14.2 4.3 0 7.4 2.3 7.4 5.9 0 4.8-2.4 10.8-5.9 10.8-1.2 0-2.1-.4-2.8-.9.4 5.1 2.4 7.6 5 7.6 2.9 0 6-2.8 7.7-5.9 1.4-2.5 2.7-6 3.3-7.4.2-.4.3-.7.4-.7.3 0 .6.6.6 2.3.1 2-1 5.3-2.6 8zm-9.8-15.6c-1.6 0-4.3 2.4-4.6 8.2.6.9 1.4 1.7 2.3 1.7 2.2 0 3.8-4.8 3.8-7.9 0-1.5-.8-2-1.5-2z" fill="#efebdf"/></g></svg>