<svg width="333" height="250" viewBox="0 0 333 250" xmlns="http://www.w3.org/2000/svg"><title>logo-cuisine</title><g fill="none"><path d="M72.6 111.775a6.25 6.25 0 1 1 0-12.5 6.25 6.25 0 0 1 0 12.5zm0-10.6a4.3 4.3 0 1 0 4.3 4.3 4.312 4.312 0 0 0-4.3-4.3z" fill="#EFEBDF"/><path d="M71.237 0v101.763a.662.662 0 1 0 1.326 0V0h-1.326zM260 111.775a6.25 6.25 0 1 1 0-12.5 6.25 6.25 0 0 1 0 12.5zm0-10.6a4.3 4.3 0 1 0 4.313 4.3 4.312 4.312 0 0 0-4.313-4.3z" fill="#EFEBDF"/><path d="M260.125 0v101.763a.662.662 0 1 0 1.325 0V0h-1.325z" fill="#EFEBDF"/><path d="M166.3 248.75c1.65 0 60.962-21.688 74.313-10.387a21.687 21.687 0 0 1 14.674-4.888c6.838.213 13.963 2.75 20.838 3.425 12.8 1.25 24.475-1.537 28.75-12.813a37.65 37.65 0 0 0 2.1-15c6.475-4.462 10.75-10.387 11.625-16.974 8.35-5.313 13.563-12.863 13.563-21.25 0-8.388-5.213-15.925-13.563-21.25-.875-6.6-5.15-12.5-11.625-16.988a37.662 37.662 0 0 0-2.1-15c-4.275-11.25-15.938-14.063-28.75-12.813-6.875.675-14 3.2-20.838 3.425a21.687 21.687 0 0 1-14.674-4.887c-13.338 11.25-72.65-10.387-74.313-10.387-1.663 0-60.963 21.737-74.313 10.45a21.7 21.7 0 0 1-14.674 4.887c-6.838-.212-13.963-2.75-20.838-3.425-12.8-1.25-24.462 1.537-28.75 12.813a37.7 37.7 0 0 0-2.1 15C19.15 137.15 14.875 143.075 14 149.662 5.675 155 .463 162.5.463 170.9s5.212 15.925 13.562 21.25c.875 6.588 5.15 12.5 11.625 16.975a37.687 37.687 0 0 0 2.1 15c4.275 11.25 15.938 14.063 28.75 12.813 6.875-.675 14-3.2 20.838-3.425a21.7 21.7 0 0 1 14.675 4.887c13.325-11.313 72.624 10.35 74.287 10.35z" fill="#EFEBDF"/><path d="M166.3 249.037a32.25 32.25 0 0 1-4.775-1.4c-10.55-3.35-38.588-12.25-56.25-12.25-6.075 0-10.4 1.063-12.863 3.15l-.375.313-.375-.313a21.013 21.013 0 0 0-14.325-4.787 66.088 66.088 0 0 0-11.412 1.762 84.462 84.462 0 0 1-9.375 1.65c-1.887.188-3.75.275-5.487.275-12.25 0-20.476-4.6-23.75-13.287a37.563 37.563 0 0 1-2.113-15c-6.613-4.588-10.725-10.6-11.6-16.963C4.85 186.576.025 179 .025 170.838s4.825-15.737 13.575-21.35c.875-6.362 5-12.374 11.6-16.962a37.5 37.5 0 0 1 2.113-15c3.3-8.75 11.512-13.3 23.75-13.3 1.75 0 3.6.088 5.487.275 3.155.407 6.285.991 9.375 1.75a65.975 65.975 0 0 0 11.425 1.775 21.05 21.05 0 0 0 14.275-4.775l.375-.313.375.313c2.5 2.088 6.787 3.15 12.862 3.15 17.688 0 45.726-8.9 56.25-12.25a32.188 32.188 0 0 1 4.775-1.4c1.626.343 3.222.81 4.775 1.4 10.563 3.35 38.6 12.25 56.25 12.25 6.076 0 10.4-1.063 12.863-3.15l.375-.313.375.313a21.05 21.05 0 0 0 14.275 4.775c3.89-.25 7.752-.844 11.537-1.775a85 85 0 0 1 9.375-1.65 55.987 55.987 0 0 1 5.488-.275c12.262 0 20.475 4.6 23.75 13.287a37.5 37.5 0 0 1 2.113 15c6.612 4.588 10.725 10.6 11.612 16.963 8.75 5.613 13.575 13.188 13.575 21.35s-4.825 15.737-13.575 21.35c-.875 6.35-5 12.375-11.613 16.963a37.5 37.5 0 0 1-2.112 15c-3.287 8.75-11.512 13.287-23.75 13.287-1.75 0-3.6-.1-5.488-.275a84.287 84.287 0 0 1-9.375-1.65 66.25 66.25 0 0 0-11.424-1.762 20.987 20.987 0 0 0-14.276 4.775l-.375.312-.375-.313c-2.5-2.087-6.787-3.15-12.862-3.15-17.7 0-45.725 8.9-56.25 12.25a32.125 32.125 0 0 1-4.775 1.4l-.075-.075zm-61.063-14.187c17.925 0 46.113 8.95 56.713 12.313 2.088.662 3.913 1.25 4.35 1.325.438.075 2.25-.663 4.337-1.326 10.613-3.362 38.75-12.312 56.726-12.312 6.087 0 10.55 1.037 13.237 3.075a22.312 22.312 0 0 1 14.7-4.7 67.35 67.35 0 0 1 11.688 1.8 84.187 84.187 0 0 0 9.212 1.625c1.85.175 3.65.275 5.338.275 11.95 0 19.637-4.325 22.875-12.875a37.325 37.325 0 0 0 2.087-14.925v-.1l.113-.075c6.587-4.537 10.675-10.512 11.512-16.825v-.088l.113-.062c8.662-5.512 13.437-13 13.437-21.05s-4.775-15.538-13.438-21.05l-.112-.063v-.087c-.837-6.325-4.925-12.3-11.512-16.825l-.113-.075v-.1a37.325 37.325 0 0 0-2.087-14.925c-3.238-8.537-10.938-12.875-22.888-12.875-1.7 0-3.487.088-5.337.275-3.1.368-6.175.91-9.213 1.625a67.037 67.037 0 0 1-11.688 1.8 22.287 22.287 0 0 1-14.7-4.7C237.9 105.963 233.45 107 227.35 107c-17.925 0-46.112-8.95-56.725-12.313-2.088-.662-3.912-1.25-4.338-1.325-.424-.075-2.25.663-4.35 1.326C151.326 98.05 123.188 107 105.213 107c-6.087 0-10.537-1.037-13.237-3.075a22.312 22.312 0 0 1-14.7 4.7 67.188 67.188 0 0 1-11.688-1.8 82.825 82.825 0 0 0-9.212-1.625 57.001 57.001 0 0 0-5.337-.275c-11.95 0-19.638 4.338-22.875 12.875a37.313 37.313 0 0 0-2.088 14.925v.1l-.113.075c-6.587 4.537-10.675 10.512-11.512 16.825v.088l-.112.062C5.688 155.363.912 162.838.912 170.9c0 8.063 4.774 15.537 13.437 21.05l.113.063v.087c.837 6.313 4.925 12.287 11.512 16.825l.112.075v.1a37.325 37.325 0 0 0 2.088 14.925c3.238 8.537 10.937 12.875 22.875 12.875a53.2 53.2 0 0 0 5.338-.275A84.075 84.075 0 0 0 65.6 235a67.413 67.413 0 0 1 11.675-1.8 22.3 22.3 0 0 1 14.7 4.7c2.713-2.013 7.163-3.05 13.263-3.05z" fill="#C10E1A"/><path d="M34.212 134.463l-2.087 1.437c-5.5 3.75-8.925 8.813-9.637 14.162l-.226 1.7-1.974 1.25c-7.2 4.588-11.325 11.1-11.325 17.888 0 6.787 4.125 13.3 11.325 17.887l1.974 1.25.226 1.7c.712 5.338 4.137 10.363 9.637 14.15l2.087 1.45-.062 1.876v2.012a32.5 32.5 0 0 0 1.938 11.8 13.063 13.063 0 0 0 7.562 8.037 25.775 25.775 0 0 0 11.513.963 73.437 73.437 0 0 0 7.775-1.4 76.637 76.637 0 0 1 14-2.075 35.075 35.075 0 0 1 15.974 3.137 46.25 46.25 0 0 1 12.888-1.512 120.613 120.613 0 0 1 22.725 2.75 370.375 370.375 0 0 1 37.325 10.137l.525.163.525-.162a370.3 370.3 0 0 1 37.325-10.138 120.663 120.663 0 0 1 22.738-2.75 46.25 46.25 0 0 1 12.887 1.512 35.075 35.075 0 0 1 15.963-3.137 76.62 76.62 0 0 1 14 2.075 73.75 73.75 0 0 0 7.774 1.4 25.8 25.8 0 0 0 11.513-.963 13.05 13.05 0 0 0 7.563-8.037 32.5 32.5 0 0 0 1.937-11.8v-2.012l-.063-1.875 2.088-1.425c5.5-3.75 8.925-8.813 9.637-14.15l.226-1.713 1.974-1.25c7.2-4.588 11.326-11.1 11.326-17.875s-4.125-13.3-11.326-17.888l-1.974-1.25-.226-1.7c-.712-5.337-4.137-10.374-9.637-14.162l-2.087-1.438.062-1.874V130.6a32.5 32.5 0 0 0-2.013-11.85 13.05 13.05 0 0 0-7.562-8.037 25.812 25.812 0 0 0-11.512-.963 73.484 73.484 0 0 0-7.763 1.4 77.087 77.087 0 0 1-14 2.075 35.125 35.125 0 0 1-15.963-3.137A46.313 46.313 0 0 1 226.9 111.6a120.613 120.613 0 0 1-22.688-2.725 370 370 0 0 1-37.387-10.125l-.525-.162-.525.162a370.175 370.175 0 0 1-37.325 10.138 120.637 120.637 0 0 1-22.737 2.737 46.25 46.25 0 0 1-12.888-1.513 35.125 35.125 0 0 1-15.963 3.138 77.062 77.062 0 0 1-14-2.075 73.488 73.488 0 0 0-7.762-1.4 25.8 25.8 0 0 0-11.513.962A13.05 13.05 0 0 0 36 118.75a32.5 32.5 0 0 0-1.938 11.8v2.012l.15 1.9z" fill="#EDECED"/><path d="M34.212 134.463l-2.087 1.437c-5.5 3.75-8.925 8.813-9.637 14.162l-.226 1.7-1.974 1.25c-7.2 4.588-11.325 11.1-11.325 17.888 0 6.787 4.125 13.3 11.325 17.887l1.974 1.25.226 1.7c.712 5.338 4.137 10.363 9.637 14.15l2.087 1.45-.062 1.876v2.012a32.5 32.5 0 0 0 1.938 11.8 13.063 13.063 0 0 0 7.562 8.037 25.775 25.775 0 0 0 11.513.963 73.437 73.437 0 0 0 7.775-1.4 76.637 76.637 0 0 1 14-2.075 35.075 35.075 0 0 1 15.974 3.137 46.25 46.25 0 0 1 12.888-1.512 120.613 120.613 0 0 1 22.725 2.75 370.375 370.375 0 0 1 37.325 10.137l.525.163.525-.162a370.3 370.3 0 0 1 37.325-10.138 120.663 120.663 0 0 1 22.738-2.75 46.25 46.25 0 0 1 12.887 1.512 35.075 35.075 0 0 1 15.963-3.137 76.62 76.62 0 0 1 14 2.075 73.75 73.75 0 0 0 7.774 1.4 25.8 25.8 0 0 0 11.513-.963 13.05 13.05 0 0 0 7.563-8.037 32.5 32.5 0 0 0 1.937-11.8v-2.012l-.063-1.875 2.088-1.425c5.5-3.75 8.925-8.813 9.637-14.15l.226-1.713 1.974-1.25c7.2-4.588 11.326-11.1 11.326-17.875s-4.125-13.3-11.326-17.888l-1.974-1.25-.226-1.7c-.712-5.337-4.137-10.374-9.637-14.162l-2.087-1.438.062-1.874V130.6a32.5 32.5 0 0 0-2.013-11.85 13.05 13.05 0 0 0-7.562-8.037 25.812 25.812 0 0 0-11.512-.963 73.484 73.484 0 0 0-7.763 1.4 77.087 77.087 0 0 1-14 2.075 35.125 35.125 0 0 1-15.963-3.137A46.313 46.313 0 0 1 226.9 111.6a120.613 120.613 0 0 1-22.688-2.725 370 370 0 0 1-37.387-10.125l-.525-.162-.525.162a370.175 370.175 0 0 1-37.325 10.138 120.637 120.637 0 0 1-22.737 2.737 46.25 46.25 0 0 1-12.888-1.513 35.125 35.125 0 0 1-15.963 3.138 77.062 77.062 0 0 1-14-2.075 73.488 73.488 0 0 0-7.762-1.4 25.8 25.8 0 0 0-11.513.962A13.05 13.05 0 0 0 36 118.75a32.5 32.5 0 0 0-1.938 11.8v2.012l.15 1.9z" fill="#424036"/><path d="M166.3 241.25l-.238-.075a366.487 366.487 0 0 0-36.675-9.9 124.875 124.875 0 0 0-23.637-2.838 53.938 53.938 0 0 0-12.287 1.25h-.25l-.225-.087a40.3 40.3 0 0 0-16.25-2.787A80.45 80.45 0 0 0 61.9 229c-2.392.562-4.812 1-7.25 1.313-3.167.47-6.4.232-9.462-.7a11.375 11.375 0 0 1-6.338-6.988 31.5 31.5 0 0 1-1.9-11.375v-1.975l.087-2.5-2.787-1.925c-5.113-3.525-8.288-8.2-8.962-13.2l-.3-2.287-2.65-1.688c-6.713-4.275-10.563-10.375-10.563-16.738 0-6.362 3.85-12.5 10.562-16.737l2.688-1.7.3-2.287c.663-5 3.85-9.675 8.963-13.2l2.787-1.925-.088-2.5v-1.975a31.5 31.5 0 0 1 1.863-11.438 11.39 11.39 0 0 1 6.337-7 21.563 21.563 0 0 1 9.45-.7c2.421.3 4.824.726 7.2 1.275a80.575 80.575 0 0 0 14.876 2.175 40.225 40.225 0 0 0 16.25-2.787l.225-.088h.25a54.012 54.012 0 0 0 12.287 1.25 125.087 125.087 0 0 0 23.638-2.837 360.688 360.688 0 0 0 36.674-9.9l.238-.076.237.076a360.787 360.787 0 0 0 36.675 9.9 125 125 0 0 0 23.638 2.837c4.13.053 8.253-.367 12.288-1.25h.25l.225.088a40.3 40.3 0 0 0 16.25 2.787c5.002-.262 9.97-.99 14.837-2.175a70.587 70.587 0 0 1 7.25-1.325c3.167-.472 6.4-.233 9.462.7a11.375 11.375 0 0 1 6.338 7 31.362 31.362 0 0 1 1.862 11.438v1.975l-.087 2.5 2.788 1.924c5.112 3.526 8.3 8.213 8.95 13.2l.312 2.288 2.65 1.688c6.713 4.274 10.563 10.374 10.563 16.737 0 6.363-3.85 12.5-10.563 16.738l-2.65 1.687-.3 2.287c-.663 5-3.837 9.675-8.95 13.2l-2.838 1.938.088 2.5v1.975a31.362 31.362 0 0 1-1.863 11.438 11.363 11.363 0 0 1-6.337 6.987 21.575 21.575 0 0 1-9.463.7 71.338 71.338 0 0 1-7.25-1.325 80.6 80.6 0 0 0-14.837-2.175 40.288 40.288 0 0 0-16.25 2.788l-.225.087h-.25a53.887 53.887 0 0 0-12.3-1.25 124.925 124.925 0 0 0-23.638 2.838 361.062 361.062 0 0 0-36.6 9.962h-.237zm-61.05-13.363h.513c8.06.195 16.084 1.158 23.962 2.875a361.862 361.862 0 0 1 36.575 9.863 361.8 361.8 0 0 1 36.575-9.863 126.9 126.9 0 0 1 23.963-2.875c4.172-.071 8.34.323 12.424 1.175a41.937 41.937 0 0 1 16.688-2.812 81.888 81.888 0 0 1 15.125 2.213c2.331.536 4.689.954 7.063 1.25 2.926.443 5.914.234 8.75-.613a10.738 10.738 0 0 0 5.912-6.625 31.25 31.25 0 0 0 1.837-11.25v-1.963l-.1-2.737 3.038-2.088c5-3.425 8.075-8 8.75-12.85l.325-2.5 2.888-1.837c6.55-4.175 10.3-10.125 10.3-16.338 0-6.212-3.75-12.174-10.3-16.337l-2.888-1.837-.325-2.5c-.65-4.863-3.75-9.438-8.75-12.863l-3.037-2.088.1-2.75v-1.962a31.175 31.175 0 0 0-1.838-11.25 10.738 10.738 0 0 0-5.913-6.625 20.088 20.088 0 0 0-8.75-.612 69.675 69.675 0 0 0-7.037 1.25 81.9 81.9 0 0 1-15.163 2.225c-5.71.2-11.4-.765-16.725-2.838a56.25 56.25 0 0 1-12.424 1.175 126.8 126.8 0 0 1-23.95-2.875 361.362 361.362 0 0 1-36.576-9.863 361.7 361.7 0 0 1-36.575 9.863 126.875 126.875 0 0 1-23.962 2.875c-4.173.074-8.34-.32-12.425-1.175a42 42 0 0 1-16.7 2.8 81.7 81.7 0 0 1-15.137-2.213 70 70 0 0 0-7.063-1.25 20.088 20.088 0 0 0-8.75.613 10.738 10.738 0 0 0-5.913 6.625 31.113 31.113 0 0 0-1.837 11.25v1.962l.1 2.75-3.038 2.088c-5 3.425-8.075 7.988-8.75 12.863l-.337 2.5-2.887 1.837c-6.55 4.162-10.3 10.125-10.3 16.337 0 6.213 3.75 12.175 10.3 16.338l2.887 1.838.337 2.5c.65 4.862 3.75 9.425 8.75 12.85L38 206.5l-.038 2.762v1.963a31.113 31.113 0 0 0 1.838 11.25 10.738 10.738 0 0 0 5.913 6.625 20.075 20.075 0 0 0 8.75.613 70.175 70.175 0 0 0 7.037-1.25 81.85 81.85 0 0 1 15.15-2.213 42 42 0 0 1 16.7 2.8 55.45 55.45 0 0 1 11.9-1.163z" fill="#C10E1A"/><path d="M70.4 182.375c-17.863 0-23.55-13.512-23.55-26.425 0-21.925 12.7-33.75 25.1-33.75a11.537 11.537 0 0 1 10.112 5.462 31 31 0 0 1 7.088-.3c.813.15.813.513.438.963a14.913 14.913 0 0 0-3.55 10c0 5.538 2.137 8.263 3.175 9.225 0 1.4-3.4 5.313-8.938 5.313-4.063 0-7.6-3.4-7.6-10.338a21.25 21.25 0 0 1 3.75-12.775c0-1.625-.587-4.063-3.75-4.063-4.575 0-10.487 7.676-10.487 30.926 0 12.625 3.75 20.524 12.624 20.524 7.5 0 9.3-5.087 9.3-9a13.362 13.362 0 0 0-.374-3.325c.737-1.85 5.462-.3 5.975 1.775-.05 4.863-2.263 15.788-19.313 15.788zm68.425-7.975c-2.662 3.987-5.837 7.825-12.775 7.825a10.313 10.313 0 0 1-10.188-6.713 12.425 12.425 0 0 1-10.924 6.713c-6.425 0-11.438-4.213-11.438-13.662 0-4.35 1.112-8.2 1.112-10.413 0-.662-.812-1.4-1.4-2.287a3.625 3.625 0 0 1-.887-2.138c0-2.362 8.188-5.237 13.95-5.237 2.662 0 4.287.737 4.287 1.924 0 2.8-1.624 7.013-3.1 11.963-1.25 4.287-2.212 7.6-2.212 11.512 0 2.138 1.112 3.988 2.8 3.988 5 0 7.975-14.688 7.975-22 0-.588-.813-1.4-1.4-2.213a4.025 4.025 0 0 1-.888-2.212c0-2.287 8.126-5.162 13.95-5.162 2.663 0 4.213.737 4.213 1.85 0 2.8-1.55 7.087-3.025 11.962a47.612 47.612 0 0 0-2.5 13.75c0 2.138 1.112 3.988 2.8 3.988 3.025 0 5.912-4.213 7.5-6.863a84.863 84.863 0 0 0 5-10.925c.225-.513.438-.813.587-.813.513-.15.888 1.476.888 3.175-.125 3.838-2.488 9.188-4.325 11.988z" fill="#EFEBDF"/><path d="M161.85 174.4c-2.662 3.987-5.825 7.825-12.775 7.825-6.425 0-11.362-4.213-11.362-13.662 0-4.35 1.325-10.488 1.325-12.7 0-.588-.813-1.4-1.4-2.213a4.025 4.025 0 0 1-.888-2.213c0-2.287 8.188-5.162 13.95-5.162 2.663 0 4.288.737 4.288 1.85 0 2.8-1.625 7.088-3.1 11.963a50.163 50.163 0 0 0-2.5 13.75c0 2.137 1.112 3.987 2.874 3.987 2.95 0 5.826-4.212 7.375-6.862a75.287 75.287 0 0 0 5-10.925c.226-.513.438-.813.588-.813.513-.15.888 1.475.888 3.175-.05 3.85-2.413 9.2-4.263 12zm-16.387-32.263c-2.8 0-6.5-1.4-6.5-4.8 0-4.65 6.125-7.387 10.112-7.387 2.875 0 6.575 1.325 6.575 4.725 0 4.662-6.2 7.462-10.188 7.462z" fill="#EFEBDF"/><path d="M171.713 182.3c-6.25 0-10-3.025-10-6.938a6.25 6.25 0 0 1 6.35-6.424c2.8 0 3.987 1.775 3.987 2.362 0 .587-.225.962-.738.962-.512 0-1.25-.587-2.362-.587a3.438 3.438 0 0 0-3.1 3.537c0 2.063 1.188 3.913 4.287 3.913 3.1 0 6.5-2.95 6.5-9.6 0-5-4.35-7.975-7.975-11.438-1.174 3.476-2.8 8.05-4.212 11.15-.3.663-.662.963-.962.963-.663 0-1.326-1.25-1.326-2.8.003-.759.152-1.51.438-2.213 1.037-2.5 2.5-6.787 3.475-10.187a9.85 9.85 0 0 1-2.137-6.25c0-3.475 7.5-7.9 10.112-7.9 1.175 0 1.625.813 1.625 1.925 0 1.325-.663 1.925-.663 3.912 0 5.1 15 9.375 15 20.225-.037 10.076-8.012 15.388-18.3 15.388zm45-7.9c-2.663 3.987-5.826 7.825-12.775 7.825-6.425 0-11.363-4.213-11.363-13.662 0-4.35 1.325-10.488 1.325-12.7 0-.588-.813-1.4-1.4-2.213a4.025 4.025 0 0 1-.887-2.213c0-2.287 8.187-5.162 13.95-5.162 2.662 0 4.287.737 4.287 1.85 0 2.8-1.625 7.088-3.1 11.963a50.163 50.163 0 0 0-2.5 13.75c0 2.137 1.113 3.987 2.875 3.987 2.95 0 5.825-4.212 7.375-6.862a75.287 75.287 0 0 0 5-10.925c.225-.513.438-.813.588-.813.512-.15.887 1.475.887 3.175-.075 3.85-2.438 9.2-4.262 12zm-16.388-32.263c-2.8 0-6.5-1.4-6.5-4.8 0-4.65 6.125-7.387 10.113-7.387 2.875 0 6.575 1.325 6.575 4.725-.05 4.662-6.226 7.462-10.213 7.462h.025z" fill="#EFEBDF"/><path d="M257.8 174.4c-2.663 3.987-4.725 7.825-11.663 7.825-6.424 0-10.412-4.213-10.412-13.662.042-4.07.614-8.116 1.7-12.038.225-.438-.375-.738-.813-.15a21.513 21.513 0 0 0-4.424 9.813 55 55 0 0 0-.963 11.15c0 3.25-.662 4.212-2.588 4.212a14.125 14.125 0 0 1-9.812-4.5c-1.112-1.325-.962-2.063-.962-3.75-.076-6.938-.438-15.138-1.113-17.425a8.912 8.912 0 0 0-1.4-2.213 4.013 4.013 0 0 1-.887-2.212c0-2.287 7.162-5.162 12.912-5.162 2.662 0 4.287.737 4.287 1.85 0 4.35-.887 6.424-1.187 12.25 2.662-5.463 8.938-13.363 11.075-13.363 3.612 0 8.262 5.387 8.262 8.188 0 1.987-3.4 8.937-3.4 18.674 0 2.95 1.038 3.988 2.213 3.988 3.175 0 5.387-4.213 6.938-6.863a75.4 75.4 0 0 0 5-10.924c.225-.513.437-.813.587-.813.513-.15.888 1.475.888 3.175-.026 3.8-2.388 9.15-4.238 11.95z" fill="#EFEBDF"/><path d="M287.55 173.662a16.563 16.563 0 0 1-15.213 8.75c-9.45 0-16.9-4.875-16.9-16.537 0-12.988 8.188-19.863 13.75-19.863 6.05 0 10.413 3.175 10.413 8.263 0 6.787-3.4 15-8.263 15a6.25 6.25 0 0 1-3.912-1.25c.587 7.162 3.325 10.625 6.938 10.625 4.062 0 8.337-3.912 10.85-8.263a89.737 89.737 0 0 0 4.65-10.337c.224-.588.437-.963.587-.963.375 0 .887.813.887 3.25.05 2.913-1.575 7.488-3.787 11.326zm-13.663-21.924c-2.212 0-6.05 3.4-6.5 11.512a4.45 4.45 0 0 0 3.175 2.363c3.1 0 5.388-6.788 5.388-11.076.012-2.137-1.162-2.8-2.05-2.8h-.012z" fill="#EFEBDF"/><path d="M263.5 188.675H69.1l5.538 11.75a.775.775 0 0 1 0 .637l-5.538 11.75h194.4l-5.538-11.75a.687.687 0 0 1 0-.637l5.538-11.75z" fill="#C10E1A"/><path d="M87.688 208.5h-3.175a2.125 2.125 0 0 1-2.113-2.113v-10.575a2.125 2.125 0 0 1 2.112-2.062h3.175a2.125 2.125 0 0 1 2.113 2.113v10.575a2.125 2.125 0 0 1-2.112 2.062zm0-2.113v-10.575h-3.175v10.575h3.174zm11.625 2.113H97.45l-3.425-9.688v9.688h-2.113v-14.75h2.3l3 8.75v-8.75h2.113zm8.987-12.687h-2.638V208.5h-2.125v-12.688H100.9v-2.062h7.4zm8.987 10.574a2.125 2.125 0 0 1-2.112 2.113h-5.287v-14.75h5.287a2.125 2.125 0 0 1 2.112 2.113v10.524zm-2.112 0v-10.575H112v10.575h3.175zm10.575 2.113h-6.35v-14.75h6.35v2.113h-4.237v3.75h3.174v2.112h-3.174v4.65h4.224zm10.3 0h-2.413l-2.5-5.9-1.4 2.713v3.2h-2.15V193.75h2.113v7.5l3.85-7.575h2.237l-3.512 6.85zm12.675-2.113a2.125 2.125 0 0 1-2.112 2.113h-5.288v-14.75h5.288a2.125 2.125 0 0 1 2.112 2.113v10.524zm-2.112 0v-10.575h-3.175v10.575h3.175zm10.575 2.113h-6.35v-14.75h6.35v2.113h-4.225v3.75h3.174v2.112h-3.174v4.65h4.225zm13.474-2.113a2.125 2.125 0 0 1-2.112 2.113h-3.175a2.125 2.125 0 0 1-2.113-2.113v-10.575a2.125 2.125 0 0 1 2.113-2.112h3.175a2.125 2.125 0 0 1 2.112 2.113v2.112h-2.112v-2.113h-3.175v10.575h3.175v-2.112h2.112v2.112zm9.513 2.113h-2.113v-6.775h-3.175v6.775h-2.112v-14.75h2.112v5.925h3.175v-5.925h2.113zm8.45 0h-6.35v-14.75h6.35v2.113H184.4v3.75h3.175v2.112H184.4v4.65h4.225zm8.188-12.687h-4.225v3.75h3.174v2.112h-3.174v6.775h-2.125v-14.7h6.35zm7.925 12.687h-2.113v-14.75h2.113zm9.475 0h-1.863l-3.425-9.688v9.688h-2.113v-14.75h2.288l3 8.75v-8.75h2.113zm12.737-2.113a2.125 2.125 0 0 1-2.112 2.113h-2.65a2.125 2.125 0 0 1-2.113-2.113v-2.112h2.113v2.112h2.65V193.75h2.112v12.637zm7.388 2.113h-3.175a2.125 2.125 0 0 1-2.113-2.113v-10.575a2.125 2.125 0 0 1 2.112-2.112h3.175a2.125 2.125 0 0 1 2.113 2.113v10.575a2.125 2.125 0 0 1-2.112 2.112zm0-2.113v-10.575h-3.175v10.575h3.174zm11.637 0a2.125 2.125 0 0 1-2.112 2.113h-3.175a2.125 2.125 0 0 1-2.113-2.113V193.75h2.113v12.688h3.175V193.75h2.112v12.637zm3.162 2.363a1.25 1.25 0 1 1 0-2.5 1.25 1.25 0 0 1 0 2.5zm1.063-4.438h-2.112V193.75h2.112v10.563z" fill="#EFEBDF"/></g></svg>