<svg xmlns="http://www.w3.org/2000/svg" width="290" height="34" viewBox="0 0 290 34"><title>Laura Fick</title><path fill="#FFF" d="M7.74 26.74h15.85a.9.9 0 0 1 .74.75v4.61a.9.9 0 0 1-.74.75H1.1a.7.7 0 0 1-.64-.65V1.37A.69.69 0 0 1 1.1.73h6a.69.69 0 0 1 .64.64zM51.8 27.28H36.17l-2.3 4.87c-.33.64-.49.7-1.13.7h-6.37a.39.39 0 0 1-.43-.38 1.74 1.74 0 0 1 .22-.64L41.25.73h5.57l15.1 31.1a1.9 1.9 0 0 1 .21.64.39.39 0 0 1-.43.38h-6.37c-.64 0-.8-.06-1.12-.7zM38.74 21.6h10.6l-2.89-5.94a54.08 54.08 0 0 1-2.25-5.73h-.32a56.58 56.58 0 0 1-2.25 5.73zM90 1.37a.69.69 0 0 1 .64-.64h6a.69.69 0 0 1 .65.64v16.11c0 10.39-6.53 15.9-16.38 15.9s-16.38-5.51-16.38-15.9V1.37a.69.69 0 0 1 .64-.64h6a.7.7 0 0 1 .65.64v16.06c0 6.64 3.26 9.85 9.1 9.85S90 24.07 90 17.43zM104.54 1.37a.69.69 0 0 1 .64-.64h14.88C127.88.73 133.45 5 133.45 12c0 4.87-2.95 8.13-7.23 9.63v.11a19.13 19.13 0 0 1 1.71 2.14l5.41 7.92a1.33 1.33 0 0 1 .32.7c0 .21-.11.38-.43.38h-7.12a1.2 1.2 0 0 1-.86-.54l-6.53-9.53h-6.9v9.39a.7.7 0 0 1-.64.65h-6a.7.7 0 0 1-.64-.65zm7.28 5.46V17h7.76c4 0 6.59-1.87 6.59-5s-2.57-5.14-6.59-5.14zM162 27.28h-15.6l-2.3 4.87c-.32.64-.48.7-1.12.7h-6.37a.39.39 0 0 1-.43-.38 1.9 1.9 0 0 1 .21-.64l15.1-31.1h5.57l15.09 31.1a1.74 1.74 0 0 1 .22.64.39.39 0 0 1-.43.38h-6.37c-.64 0-.8-.06-1.13-.7zm-13-5.68h10.6l-2.89-5.94a56.58 56.58 0 0 1-2.25-5.73h-.32a54.08 54.08 0 0 1-2.25 5.73zM179.09 33.06a.45.45 0 0 1-.42-.43V1.37a.45.45 0 0 1 .42-.43h23.13a.56.56 0 0 1 .48.48v1.72a.56.56 0 0 1-.48.48h-20.55V16.2h18.41a.56.56 0 0 1 .48.48v1.71a.56.56 0 0 1-.48.48h-18.41v13.76a.46.46 0 0 1-.43.43zM212.61 32.63a.45.45 0 0 1-.43.43H210a.46.46 0 0 1-.43-.43V1.37a.46.46 0 0 1 .43-.43h2.14a.45.45 0 0 1 .43.43zM249.92 13.09c-.32 0-.48-.11-.53-.53-.43-5.09-4.77-9.48-12-9.48-7.65 0-13.65 5.3-13.65 13.92s6 13.92 13.65 13.92c7.87 0 11.62-4.5 12-8.89.05-.48.16-.59.59-.59h1.92c.22 0 .54 0 .54.32 0 5-4.66 11.84-15.1 11.84-9.31 0-16.65-6.38-16.65-16.6S228 .4 237.34.4c10 0 15.1 6.86 15.1 12.32 0 .21-.16.37-.54.37zM263.52 19.62h.06s1.07-1.07 2.3-2.14L284.4 1.37a1.28 1.28 0 0 1 1-.43h2.89a.19.19 0 0 1 .21.21.54.54 0 0 1-.21.38l-15.93 13.81 17 17.13c.1.11.21.21.21.32s-.11.27-.32.27h-2.89a1 1 0 0 1-.8-.32l-15.34-15.47c-2.25 1.92-4.5 3.85-6.7 5.83v9.53a.45.45 0 0 1-.42.43H261a.45.45 0 0 1-.42-.43V1.37a.45.45 0 0 1 .42-.43h2.15a.45.45 0 0 1 .42.43z"/></svg>
