<?xml version="1.0" encoding="utf-8"?>
<!-- Generator: Adobe Illustrator 21.1.0, SVG Export Plug-In . SVG Version: 6.00 Build 0)  -->
<svg version="1.1" id="Layer_1" xmlns="http://www.w3.org/2000/svg" xmlns:xlink="http://www.w3.org/1999/xlink" x="0px" y="0px"
	 viewBox="0 0 23.5 18" enable-background="new 0 0 23.5 18" xml:space="preserve">
<g>
	<g>
		<path fill="#FFFFFF" d="M16.7,0H1.3C0.6,0,0,0.6,0,1.3v15.4C0,17.4,0.6,18,1.3,18h15.3c0.7,0,1.3-0.6,1.3-1.3V1.3
			C18,0.6,17.4,0,16.7,0z M5.3,15.3H2.7V6.7h2.7V15.3z M4,5.6C3.1,5.6,2.5,4.9,2.5,4S3.1,2.5,4,2.5c0.9,0,1.5,0.7,1.5,1.5
			S4.9,5.6,4,5.6z M15.3,15.3h-2.7v-4.2c0-1,0-2.3-1.4-2.3c-1.4,0-1.6,1.1-1.6,2.2v4.2H7V6.7h2.6v1.2h0c0.4-0.7,1.2-1.4,2.5-1.4
			c2.7,0,3.2,1.8,3.2,4.1V15.3z"/>
	</g>
	<g>
		<path fill="#FFFFFF" d="M21.7,13.9c0.4,0,0.6-0.3,0.6-0.6c0-0.4-0.3-0.6-0.8-0.6h-0.9v2.2h0.3v-1h0.4l0,0l0.6,1h0.3L21.7,13.9
			L21.7,13.9z M21.3,13.7h-0.4v-0.8h0.5c0.2,0,0.5,0,0.5,0.4C21.9,13.6,21.6,13.7,21.3,13.7z"/>
		<path fill="#FFFFFF" d="M21.3,11.6c-1.2,0-2.1,0.9-2.1,2.1c0,1.2,0.9,2.1,2.1,2.1c1.2,0,2.1-0.9,2.1-2.1
			C23.5,12.6,22.5,11.6,21.3,11.6z M21.3,15.6c-1,0-1.8-0.8-1.8-1.9c0-1,0.8-1.8,1.8-1.8c1,0,1.8,0.8,1.8,1.8
			C23.1,14.8,22.3,15.6,21.3,15.6z"/>
	</g>
</g>
</svg>
