<svg xmlns="http://www.w3.org/2000/svg" xmlns:xlink="http://www.w3.org/1999/xlink" viewBox="1168.584 -17.16 31.18 27.669"><defs><style>.a{fill:none;}.b{fill:#feb41c;stroke:#000;stroke-linecap:round;stroke-miterlimit:10;stroke-width:1.08px;}.c{clip-path:url(#a);}.d{fill:#fff;}</style><clipPath id="a"><path class="a" d="M2.16.42H29a1.77,1.77,0,0,1,1.53,2.65L17.12,26.44a1.77,1.77,0,0,1-3.07,0L.63,3.06A1.77,1.77,0,0,1,2.16.42Z"/></clipPath></defs><g transform="translate(1168.599 -17.42)"><path class="b" d="M2.29.8H28.85a1.75,1.75,0,0,1,1.52,2.62L17.09,26.54a1.75,1.75,0,0,1-3,0L.78,3.42A1.75,1.75,0,0,1,2.29.8Z"/><g class="c"><path d="M21.73,4.58c-.26.65-.53,1.29-.76,2-.16.45-.21.95-.39,1.39A7.88,7.88,0,0,1,19.91,9l-.15-.33-.34.41c-.24-.57.63-.81.22-1.44-.25-.38,0-1.08,0-1.63a12.883,12.883,0,0,0-.2-1.64h-.15l.09.81h-.05L19,4.4c-.07.1-.14.16-.13.2a3.54,3.54,0,0,1-.59,2.49,3.15,3.15,0,0,0-.11,1.76l.39-.91h.07a6.53,6.53,0,0,1-.08.76s-.06.07-.05.09c.47.8-.41,1.19-.54,1.81-.08.38-.17.76-.27,1.21a4.22,4.22,0,0,1,0-1.88,2.18,2.18,0,0,0,.06-1.65,13.61,13.61,0,0,1-.52-1.81.49.49,0,0,0-.31-.32,2.011,2.011,0,0,0,.14.52.415.415,0,0,1-.26.58c-.11,0-.2.28-.22.44V8.93c-.32-.55.14-1.29-.76-1.63v3.41H15.6V8.55h-.11v1h0l-.4-2.75H15l-.3,1.77h-.09a3.32,3.32,0,0,0,0-.78,2,2,0,0,0-.35-.55,2.19,2.19,0,0,1-.21-.3c.44-.42.17-.83,0-1.19l-.56,2.71-.06-1H13.3l-.09,1h.07l-.85-2.9h-.05V4.5h-.16L12,5.25h0V4.43a5.72,5.72,0,0,0-.23,3.34l-.19-.26-.18,1.3c-.36-.39-.77-.64-.74-1.21a2.36,2.36,0,0,0-.17-.71A16.64,16.64,0,0,1,10,4.77l-.13.42L7.71,2.37,8.45,2l.19.66.16-.9L9,1.8l-.15.59.49-.23,1.24,3.73h.07c-.16-.68-.34-1.36-.46-2.05a6.31,6.31,0,0,1,0-1.16.24.24,0,0,1,.12-.15l1.56-.85.16.42,1-1.5V.95h.13l.23-.42a.67.67,0,0,0,1.1-.14V.82c.06-.06.1-.09.11-.13.29-.78.6-.89,1.38-.51a1.06,1.06,0,0,0,.4,0l.21.76.08-.47c.15.1.26.64.46.07l.35.41.33-.29.29.21V.41L19.35,2h.1l-.12-.78A10,10,0,0,1,20,2c.35.53.47.58,1.15.39.36,1.21-.55,2.27-.41,3.5l.62-2.24.38,1Z"/><path d="M5,13.22l.54.14v-.09l-.88-.46c-.22.27-.35.41-.46.58a.58.58,0,0,0-.1.31c0,.39,0,.77,0,1.16l-.26.12.31.08-.39.79H4.5s.27,1-.51.71c-.2-.07-.8-.4-.26-.87-.7-.35-.7-.35-.29-.75L3,15a.76.76,0,0,1-.38,0c.13-.1.26-.2.43-.32H2.29c.4-.16.65-.26.9-.35v-.18a2,2,0,0,1-2,0,1.48,1.48,0,0,1-.93-1.61l1.15-.27v.09L1,12.58v.09c.33,0,.57.52,1,.16a3.24,3.24,0,0,1,.65-.35l-.06-.14-.77.29v-.08l2-1.84.24.42A6.58,6.58,0,0,1,6.32,9.44c.3-.14.58-.3.53-.73,1.84.26,3.66.61,5,2.1a3.35,3.35,0,0,1,.61,2.4c0,.39-.11.72.43.77.05,0,.12.27.11.42s-.14.19-.23.31c.55,0,.7.12.7.64a1.65,1.65,0,0,0,.35,1.31c.1.1,0,.37,0,.56-.05.83.26,1.22,1,1.11s2-.14,2-.14c.38,0,1.75,0,1.87.39.25.81-1.18,1.65-1.18,1.65l-.23-.35a.87.87,0,0,1-.07.43c-.65,1.18-1.22,1.7-1.12,2.1a.82.82,0,0,0,.57.43c.82.14,1.65.21,2.47.33.13,0,.23.19.31.34-2.3.11-6.8.15-6.8.15v-.12l-.43.08-.05-.18a6.16,6.16,0,0,1,.75-.23c.69-.12,1.39-.19,2.08-.34a.739.739,0,0,0,.27-1.18c-.32-.41-.69-.91-1-1.38a1.28,1.28,0,0,1-.1-.43l-.21.35c-.48-.32-1-.57-1.24-1.14a.61.61,0,0,1,.08-.55,1.75,1.75,0,0,0,.38-2.18,1.32,1.32,0,0,1-.07-.92.61.61,0,0,0,0-.24l-.81.74-.1-.06.27-1-.71.61-.1-.07.5-1.59c-.11-.06-.22-.08-.25-.14-.35-.79-1-.53-1.62-.51A4.1,4.1,0,0,1,6.75,11.4a3.74,3.74,0,0,1-.44-1c-.15-.44-.47-.45-.78-.28a2.12,2.12,0,0,0-.74.63c-.07.11.06.47.21.58.74.54,1.51,1,2.27,1.54l1.37.9a2.86,2.86,0,0,0,.48.24l1.17.44V15l-.52.9.03.1-.61.21.67.6L9.7,17A6.73,6.73,0,0,1,7,15.55h.47s.06,0,.18-.14l-1.36-.53h.55V14.8l-.5-.23c.2-.63.76-.16,1.07-.34l-.92-.49v-.18h.68V13.4l-1.41.06v.1l.51.27-.1.17L5,13.35Zm6.07-1.76c-1.38.91-2.69.74-3.5-.65A1,1,0,0,0,8.21,12c1.32.7,1.99.59,2.87-.54ZM1.5,13.25c.33.1.23.89.88.44C2.1,13.47,2.13,12.81,1.5,13.25Z"/><path d="M24.56,14l-.88.23c.37.21.92-.25,1.12.39l-.62.21.29.18-.94.42.53.22a3.42,3.42,0,0,1-1.7,1c-.09,0-.17.14-.26.18a.6.6,0,0,1-.27,0,1.78,1.78,0,0,1-.14-.43l.31-.2v-.14L20.94,16c-.13,0-.31.05-.39,0a1.25,1.25,0,0,1-.24-.41l.38-.14H20.6l.52-.64c.14-.18.5-.31.12-.63a3.1,3.1,0,0,0,1.95-.83A15.67,15.67,0,0,1,25.26,12a13.68,13.68,0,0,0,1.26-1,2.17,2.17,0,0,0-.17-.24c-1.15-1-1.24-1-1.81.47a3,3,0,0,1-1,1.15,3.39,3.39,0,0,1-3.12.71c-.26-.08-.4,0-.61.23a1.18,1.18,0,0,0,0,1.8v.28L19,14.82v.8l-.38.15-.48-.93H18c.05-.52.32-.1.56,0L18.38,14c.51,0,.61-.14.57-.56a3.14,3.14,0,0,1,1-2.94,5.66,5.66,0,0,1,3.39-1.43A.86.86,0,0,0,23.73,9c.3-.18.52-.21.66.19a.54.54,0,0,0,.22.26L27.25,11l-.14-.86a7.43,7.43,0,0,1,.67.68c.16.22.24.49.4.71a3.39,3.39,0,0,0,.59.63,4.36,4.36,0,0,0,.65.38l-.08.17-.71-.28c.55.65.77.68,1.55.26l-.56-.16v-.1l1.24.27a1.45,1.45,0,0,1-1,1.62c-.62.21-1.35.48-2-.18l-.06.21.86.43H28l.52.31v.1l-.69-.26c.19.27.47.52-.08.62-.1,0-.14.39-.21.63-.27-.16-.25.91-.75.27-.1-.13-.3-.38.13-.42l-.37-.18.55-.11a6.69,6.69,0,0,1-.22-1,8,8,0,0,0,0-1.15,1.34,1.34,0,0,0-.56-.69c-.1-.07-.38.12-.55.31h.33a2.08,2.08,0,0,1-1.58.72l.77-.4c-.79-.3-.78,0-.78,0Zm-.95-3.57a1.83,1.83,0,0,1-1.32,1.56,2.27,2.27,0,0,1-2-.33c.69,1,1.34,1.06,2.69.42a1.28,1.28,0,0,0,.63-1.7Z"/><path d="M23.2,5.22,22,6.09V5.65l-.6.81-.22-.13a17.92,17.92,0,0,1,1-1.93,19.131,19.131,0,0,1,1.6-1.93c.28-.32.41-.29.76,0C25.74,1.43,27,.53,28.7.8l-.93.73.25.14a.55.55,0,0,1-.07.1c-.24.22-.47.44-.72.64S26.43,3,26,3.3a3.048,3.048,0,0,1-.49-.2,6.66,6.66,0,0,0-2.33,2.14Z"/><path d="M27.36,5.6l1.35-.3-1-.68V4.56l1.76.6L29.53,5,29,4.67c.53.16,1,.28,1.44.45a.62.62,0,0,1,.29.42c.11.6.18,1.21.24,1.81s0,.94.09,1.4a2.54,2.54,0,0,1-.8,1.93.27.27,0,0,1-.24,0c-.23-.09-.33-.77-.15-1l-.55-.3L30,8.6a.753.753,0,0,1-.55-.17c-.14-.17-.61-.33-.21-.72h-.65l.06-.2c.29-.87.11-1.27-.71-1.61A3.6,3.6,0,0,1,27.36,5.6Z"/><path d="M6.85,4.18c-.21-.58-.75-1.13-1.21-1-.73.18-1-.23-1.47-.54s-.81-.53-.83-.82c0-.57-.54-.57-.72-.9.54-.52,2.46,0,4,1.63L6.73,2l.84.68a.79.79,0,0,1,.23.22c.34.72,1.05,1.17,1.41,1.88A13.309,13.309,0,0,1,9.7,6.02l-.16.07-.36-.44.08.48-.11.08C8.5,5.61,7.87,5,7.23,4.37a1.46,1.46,0,0,0-.38-.19Z"/><path d="M2,4.77l-.24.31.08.11,1.75-.63v.07l-.92.6v.13L4,5.62,3.25,6l-.61.34c-.36.4-.21.88,0,1.41l-.83-.12.23.47a.77.77,0,0,1-1,.49L2,9.4l-.71.38h.56l-.43.32h.22l-.44.61c-.23-.22-.55-.39-.66-.66a3.49,3.49,0,0,1-.27-1.4A25.284,25.284,0,0,1,.59,5.6.6.6,0,0,1,1.21,5,2.71,2.71,0,0,0,2,4.77Z"/><path d="M21.75,4.58h0V3.37A9.612,9.612,0,0,1,22,2c.36.15.74.42.92-.21l.73.5L22,4.48A1.626,1.626,0,0,1,21.75,4.58Z"/><path d="M23.23,5.22h0l1.13-.88c-.07.26-.28.66-.18.77.34.38,0,.56-.12.82a.186.186,0,0,0-.12.06l-.17-.34-.58.91L23,6.53l.19-.5-.48.09Z"/><path d="M6.85,4.18,8.41,6a.62.62,0,0,1,.07.16l-.57-.19.32.63a4.41,4.41,0,0,1-.66-.34c-.29-.22-.8-.33-.43-.9C7.2,5.22,7,5,7,4.82a3.461,3.461,0,0,0-.13-.64Z"/><path d="M8.66,8.32l-.72-.81.36.06.08-.1L6.83,6l.07-.07a10.989,10.989,0,0,0,1.41,1,1.56,1.56,0,0,1,.89,1.3l-.53.06Z"/><path d="M13.49,11a9.92,9.92,0,0,1-.8-1.35,1.989,1.989,0,0,1,.06-.95A2.145,2.145,0,0,1,13.49,11Z"/><path d="M22.55,7.53l-.27.13-.09-.16,2-1.45.1.13-.9.71.27.1-1,.51Z"/><path d="M19.23,6.18c.08.11.23.24.22.34-.05.62-.14,1.24-.22,1.85l-.15.24V6.24Z"/><path d="M22.55,7.53h.83l-1.23.87L22,8.2Z"/><path d="M8.66,8.32a5.71,5.71,0,0,1-2.42-.47,5.91,5.91,0,0,1,2.42.47Z"/><path d="M23.59,7.82h1.28a2.76,2.76,0,0,1-1.87.4l.58-.41Z"/><path d="M12.06,8.55a8.783,8.783,0,0,0-.12-1c-.04-.34-.11-.61-.14-.92a1.46,1.46,0,0,1,.06-.37c.09.1.26.2.27.3v2Z"/><path d="M27.27,9.74l-.47-.06-.14-.43C27.37,9.14,27.37,9.14,27.27,9.74Z"/><path d="M4.41,9.69,4,9.73c-.09-.58-.09-.58.59-.48Z"/><path d="M6.59,7.35,8,7.75v.12L6.55,7.54Z"/><path d="M23.61,7.83l-.31.06V7.77l1.38-.42.05.17-1.09.33Z"/><path class="d" d="M11.08,11.46c-.88,1.13-1.55,1.24-2.87.57a1,1,0,0,1-.63-1.22C8.39,12.19,9.7,12.37,11.08,11.46Z"/><path class="d" d="M23.61,10.38A1.28,1.28,0,0,1,22.94,12c-1.35.64-2,.54-2.69-.42a2.27,2.27,0,0,0,2,.33,1.83,1.83,0,0,0,1.36-1.53Z"/></g></g></svg>