<svg xmlns="http://www.w3.org/2000/svg" xmlns:xlink="http://www.w3.org/1999/xlink" viewBox="3694 602.277 250 181.023"><defs><style>.a{fill:#feb41c;stroke:#000;stroke-linecap:round;stroke-miterlimit:10;stroke-width:4.847px;}.b{clip-path:url(#a);}.c{fill:#fff;}</style><clipPath id="a"><path d="M64.9,1.9H185.1A7.964,7.964,0,0,1,192,13.8L131.9,118.4a7.89,7.89,0,0,1-13.7,0L58.1,13.7A7.814,7.814,0,0,1,64.9,1.9Z"/></clipPath></defs><g transform="translate(3694 601.1)"><path class="a" d="M65.5,3.6H184.3a7.822,7.822,0,0,1,6.8,11.7L131.7,118.8a7.878,7.878,0,0,1-13.6,0L58.7,15.3A7.822,7.822,0,0,1,65.5,3.6Z"/><g class="b"><path d="M152.5,20.5c-1.1,2.9-2.4,5.8-3.4,8.7-.7,2-.9,4.2-1.7,6.2a34.125,34.125,0,0,1-3,4.9,10.742,10.742,0,0,0-.7-1.5,18.053,18.053,0,0,0-1.5,1.9c-1.1-2.5,2.8-3.6,1-6.4-1.1-1.7,0-4.8-.1-7.3s-.6-4.9-.9-7.4l-.7.1.4,3.6c-.1,0-.1,0-.2.1-.4-1.2-.8-2.4-1.3-3.8-.3.4-.6.7-.6.9,1.1,4.2-1,7.7-2.6,11.1-1.3,2.7-.7,5.2-.5,7.9.6-1.4,1.2-2.7,1.7-4.1.2,0,.1,0,.3.1-.1,1.1-.2,2.3-.4,3.4,0,.1-.3.3-.2.4,2.1,3.6-1.8,5.3-2.4,8.1-.4,1.7-.8,3.4-1.2,5.4-.3-3-.8-5.6.1-8.4.7-2.3,1.5-4.7.3-7.4-1.1-2.5-1.5-5.4-2.3-8.1a1.962,1.962,0,0,0-1.4-1.4c.2.8.4,1.6.6,2.3.3,1.2.4,2.1-1.2,2.6-.5.1-.9,1.3-1,2-.1,1.7,0,3.5,0,5.5-1.4-2.4.6-5.8-3.4-7.3V47.8h-1V38.1h-.5v4.4h-.2l-1.8-12.3h-.3c-.4,2.6-.9,5.3-1.3,7.9h-.4a13.551,13.551,0,0,0-.1-3.5,8.754,8.754,0,0,0-1.6-2.5c-.3-.5-1-1.3-.9-1.4,1.9-1.9.8-3.7,0-5.3-.8,3.8-1.6,7.8-2.5,12.1-.1-1.7-.2-3-.3-4.4h-.6l-.4,4.4c.1,0,.2-.1.3-.1-1.3-4.3-2.5-8.7-3.8-13-.1.1-.2.1-.2.2V19.8c-.4-.1-.3,0-.7-.1-.4,1.2-.7,2.3-1.1,3.5h-.2c.1-1.2.2-2.4.3-3.7-2,4.9-2,9.8-1.1,15l-.8-1.2c-.2,2-.4,3.7-.7,5.9-1.6-1.8-3.5-2.9-3.3-5.4.1-1-.5-2.1-.8-3.2a72.975,72.975,0,0,1-2.2-9.5c-.2.7-.4,1.4-.6,1.9-3.3-4.3-6.6-8.7-9.6-12.6.9-.5,2.1-1,3.3-1.6.3.9.5,1.9.8,3,.3-1.5.5-2.7.7-4l.7.1c-.2.8-.4,1.5-.7,2.6.9-.4,1.5-.7,2.2-1,1.9,5.6,3.7,11.2,5.5,16.7.2-.1.1,0,.3-.1-.7-3.1-1.5-6.1-2.1-9.2a30.117,30.117,0,0,1-.1-5.2,1.157,1.157,0,0,1,.5-.7c2.3-1.3,4.5-2.5,7-3.8.1.3.4,1,.7,1.9,1.6-2.2,3-4.3,4.7-6.7V4.1a1.268,1.268,0,0,0,.6.1c.3-.6.7-1.2,1-1.9a3.021,3.021,0,0,0,4.9-.6c.1.7.1,1.2.2,1.9a2.2,2.2,0,0,0,.5-.6c1.3-3.5,2.7-4,6.2-2.3a5.4,5.4,0,0,0,1.8,0c.2.8.5,1.8.9,3.4.2-1,.3-1.5.4-2.1.7.4,1.1,2.9,2.1.3a20.932,20.932,0,0,0,1.6,1.8c.5-.4.9-.8,1.5-1.3a15.074,15.074,0,0,0,1.3.9c0-.8.1-1.3.1-2,1.9,2.4,3.6,4.7,5.3,6.9l.4-.2c-.1-1-.3-2-.5-3.5,1.2,1.5,2.2,2.4,3,3.5,1.6,2.4,2.1,2.6,5.2,1.8,1.6,5.4-2.4,10.1-1.8,15.7.9-3.4,1.8-6.4,2.8-10,.8,2.1,1.3,3.4,1.7,4.6Z"/></g><g class="b"><path d="M77.7,59.1l2.4.6.2-.4c-1.4-.7-2.8-1.5-3.9-2.1a26.546,26.546,0,0,0-2.1,2.6,2.3,2.3,0,0,0-.4,1.4c0,1.7.1,3.5,0,5.2,0,.2-.7.3-1.2.5a12.746,12.746,0,0,1,1.4.4c-.6,1.1-1.1,2.2-1.8,3.5h3.1s1.2,4.5-2.3,3.2c-.9-.3-3.6-1.8-1.2-3.9-3.1-1.6-3.1-1.6-1.3-3.3a9.793,9.793,0,0,0-1.9.5,3.085,3.085,0,0,1-1.7.2c.6-.4,1.1-.9,1.9-1.4H65.4c1.8-.7,2.9-1.2,4-1.6,0-.3-.1-.5-.1-.8-3.1,2.2-6.4,1.1-9.1.1a6.612,6.612,0,0,1-4.1-7.2c1.5-.4,3.3-.8,5.1-1.2,0,.1.1.3.1.4l-1.8.6v.4c1.5.1,2.6,2.3,4.4.7a13.5,13.5,0,0,1,2.9-1.6l-.3-.6c-1.1.4-2.3.9-3.4,1.3l-.2-.4c2.9-2.7,5.8-5.4,8.8-8.2.4.8.8,1.3,1.1,1.9,2.9-3.5,6.6-5.7,10.6-7.6,1.3-.6,2.6-1.3,2.4-3.3,8.2,1.2,16.4,2.7,22.2,9.4,2.5,2.9,2.9,7,2.7,10.8-.1,1.8-.5,3.2,1.9,3.4.2,0,.5,1.2.5,1.9,0,.4-.6.9-1,1.4,2.5-.2,3.1.6,3.2,2.9,0,2.1-.2,4.2,1.6,5.9.4.4.2,1.7.1,2.5-.2,3.7,1.2,5.5,4.5,4.9a84.029,84.029,0,0,1,8.7-.6c1.7.1,7.8,0,8.4,1.8,1.1,3.6-5.3,7.4-5.3,7.4l-1-1.6A4.121,4.121,0,0,1,132,91c-2.9,5.3-5.5,7.6-5,9.4a3.518,3.518,0,0,0,2.6,1.9c3.7.6,7.4.9,11,1.5.6.1,1,.8,1.4,1.5-10.3.5-30.4.7-30.4.7v-.5c-.6.1-1.3.2-1.9.3a2.354,2.354,0,0,1-.2-.8,19.062,19.062,0,0,1,3.4-1c3.1-.6,6.2-.8,9.3-1.5,2.1-.5,2.6-3.5,1.2-5.3-1.6-2-3.1-4.1-4.6-6.2a8.709,8.709,0,0,1-.5-1.9c-.2.4-.5.8-.9,1.5-2.1-1.4-4.5-2.6-5.5-5.1a2.754,2.754,0,0,1,.4-2.5c3.1-2.8,3.2-6.2,1.7-9.7a5.34,5.34,0,0,1-.3-4.1,3.978,3.978,0,0,0,0-1.1l-3.6,3.3a3.208,3.208,0,0,1-.5-.3c.4-1.4.7-2.8,1.2-4.7-1.3,1.1-2.2,1.9-3.2,2.7-.2-.2-.2-.1-.5-.3.7-2.3,1.5-4.6,2.2-7.1-.5-.3-1-.4-1.1-.6-1.6-3.5-4.3-2.4-7.3-2.3a18.213,18.213,0,0,1-15.8-8,14.978,14.978,0,0,1-1.9-4.7c-.7-2-2.1-2-3.5-1.3a10.047,10.047,0,0,0-3.3,2.8c-.3.5.3,2.1,1,2.6,3.3,2.4,6.7,4.6,10.1,6.9,2,1.4,4.1,2.7,6.1,4a21.159,21.159,0,0,0,2.1,1.1c1.7.7,3.4,1.3,5.2,2V67c-.5,1-1.4,2.5-2.3,4,.2.1.3.3.5.4-.9.3-1.7.6-2.7.9q1.65,1.5,3,2.7a5.5,5.5,0,0,1-.7.9c-4.2-1.9-8.9-2.6-12.3-6.5.8,0,1.5-.1,2.1-.1.1,0,.2-.2.8-.6-2.1-.8-3.9-1.5-6.1-2.4,1.1.1,1.8.1,2.4.2.1-.2,0-.2.1-.4-.7-.3-1.5-.7-2.2-1,.9-2.8,3.4-.7,4.8-1.5-1.3-.7-2.7-1.4-4.1-2.2l.2-.8h3v-.7l-6.3.3c-.1.2,0,.2-.1.4.8.4,1.5.8,2.3,1.2-.1.2-.3.5-.4.7-1.8-1-3.6-1.9-5.4-2.9A4.724,4.724,0,0,1,77.7,59.1Zm27.1-7.8c-6.2,4.1-12,3.3-15.7-2.9-.7,2.2.4,4.2,2.8,5.5C97.9,56.8,100.9,56.3,104.8,51.3ZM62,59.3c1.5.5,1,4,3.9,2C64.6,60.3,64.8,57.3,62,59.3Z"/></g><g class="b"><path d="M165.1,62.4c-1.3.3-2.5.7-3.9,1,1.7.9,4.1-1.1,5,1.7-.8.3-1.6.5-2.8.9l1.3.8c-1.3.6-2.5,1.1-4.2,1.9l2.4,1c-1.9,2.7-4.9,3.3-7.6,4.5a12.487,12.487,0,0,1-1.2.8c-.4.1-1.1.2-1.2,0a8.5,8.5,0,0,1-.6-1.9l1.5-.7c-.1-.3,0-.3-.1-.6-1.6-.1-3.1-.3-4.7-.4-.6,0-1.4.2-1.7,0-.5-.4-.7-1.2-1.1-1.8.6-.2,1.1-.4,1.7-.6-.1-.1-.3-.1-.4-.2.8-1,1.6-1.9,2.3-2.9.6-.8,2.2-1.4.5-2.8a13.688,13.688,0,0,0,8.7-3.7c2.6-2.4,6.2-3.6,9.3-5.6a49.783,49.783,0,0,0,5.6-4.7,10.765,10.765,0,0,0-.8-1.1c-5.1-4.6-5.5-4.4-8.1,2.1-.8,2-2.8,3.8-4.6,5.1-4.1,3-8.7,4.8-14,3.2-1.2-.4-1.8,0-2.7,1-2.6,2.9-2.2,5.4.2,8,.2.2.1.7.1,1.2-1.2-.8-2.3-1.6-3.6-2.5.1,1.4.1,2.5.2,3.6-.6.2-1.2.5-1.7.7q-1.05-1.95-2.1-4.2c-.2,0-.4.1-.6.1.2-2.3,1.4-.4,2.5-.1-.4-1.3-.7-2.4-1.1-3.6,2.3.1,2.7-.6,2.6-2.5-.4-5,.2-9.7,4.4-13.2,4.4-3.6,9.3-6.2,15.2-6.4a3,3,0,0,0,1.8-.6c1.3-.8,2.3-.9,2.9.9a2.94,2.94,0,0,0,1,1.2c3.9,2.3,7.8,4.6,11.8,7-.2-1-.3-2-.6-3.9a41.789,41.789,0,0,1,3,3c.7,1,1.1,2.2,1.8,3.2a17.271,17.271,0,0,0,2.6,2.8,16.924,16.924,0,0,0,2.9,1.7,2.994,2.994,0,0,1-.4.8c-1.1-.4-2.1-.8-3.2-1.3,2.5,2.9,3.5,3,6.9,1.2-.9-.3-1.7-.5-2.5-.7,0-.1.1-.3.1-.4,1.9.4,3.8.8,5.5,1.2.3,3.5-1.3,6.2-4.3,7.3-2.8.9-6,2.1-8.9-.8-.1.3-.2.6-.3,1l3.8,1.9h-3c1,.6,1.6,1,2.3,1.4-.1.3-.1.2-.2.5-.9-.3-1.8-.7-3.1-1.1.8,1.2,2.1,2.3-.3,2.8-.4.1-.6,1.8-.9,2.8-1.2-.7-1.1,4.1-3.4,1.2-.5-.6-1.3-1.7.6-1.9-.4-.2-.8-.4-1.7-.8l2.4-.5a33.385,33.385,0,0,1-1-4.3c-.1-1.7.4-3.5,0-5.1a5.818,5.818,0,0,0-2.5-3.1c-.5-.3-1.7.6-2.4,1.4H172a8.638,8.638,0,0,1-6.9,3.1c1-.5,2.1-1.1,3.4-1.8-3.5-1.3-3.5-.2-3.5-.2S165.1,61.9,165.1,62.4Zm-4.2-15.9c-.7,3.8-2.7,6.1-5.9,7a9.985,9.985,0,0,1-9.1-1.5c3.1,4.3,6,4.7,12,1.9C160.7,52.5,161.8,50.1,160.9,46.5Z"/></g><g class="b"><path d="M159.1,23.4c-1.7,1.2-3.4,2.5-5.3,3.9v-2c-1,1.3-1.8,2.5-2.7,3.6a8.8,8.8,0,0,0-1-.6c1.5-2.9,2.7-6,4.6-8.7a84.081,84.081,0,0,1,7.2-8.6c1.3-1.4,1.8-1.3,3.4,0,5.2-4.6,10.7-8.7,18.4-7.4-1.3,1.1-2.7,2.1-4.1,3.3.5.3.8.4,1.1.6a1.38,1.38,0,0,1-.3.4c-1.1,1-2.1,2-3.2,2.9-1.8,1.4-3.6,2.8-5.5,4-.3.2-1.1-.4-2.2-.9-4.3,1.8-7.4,5.7-10.4,9.5Z"/></g><g class="b"><path d="M177.7,25.1c2.1-.5,3.7-.8,6.1-1.3-2-1.3-3.3-2.2-4.7-3,.1-.1,0-.1.1-.3,2.6.9,5.2,1.8,7.9,2.7a3.329,3.329,0,0,0,.3-.6c-.7-.5-1.3-1-2.3-1.7a61.167,61.167,0,0,1,6.4,2,2.668,2.668,0,0,1,1.3,1.9c.5,2.7.8,5.4,1.1,8.1.2,2.1.2,4.2.4,6.3.4,3.6-1.5,6.1-3.6,8.6a1.389,1.389,0,0,1-1.1.2c-1-.4-1.5-3.5-.7-4.5-.7-.4-1.4-.8-2.4-1.3,1.1-1.3,2.1-2.6,3-3.6-.4-.1-1.8-.1-2.5-.8-.6-.7-2.7-1.5-.9-3.2h-2.9l.3-.9c1.3-3.9.5-5.7-3.2-7.2C179.5,26.1,178.7,25.6,177.7,25.1Z"/></g><g class="b"><path d="M85.9,18.7c-.9-2.6-3.4-5.1-5.4-4.6-3.2.8-4.7-1-6.6-2.4-1.4-1-3.6-2.4-3.7-3.7-.1-2.5-2.4-2.6-3.2-4,2.4-2.3,11,0,17.8,7.3.2-.8.4-1.6.5-2.3,1.2,1,2.5,2,3.8,3a3.178,3.178,0,0,1,1,1c1.5,3.2,4.7,5.2,6.3,8.4.9,1.8,1.5,3.7,2.2,5.5-.2.1-.5.2-.7.3-.5-.6-1-1.2-1.6-2,.1.9.2,1.5.3,2.2-.2.1-.3.2-.5.3-2.8-2.8-5.7-5.6-8.5-8.3-.5-.3-1.1-.4-1.7-.7Z"/></g><g class="b"><path d="M64,21.3c-.4.6-.8,1-1.1,1.4.2.3.2.2.4.5,2.6-.9,5.2-1.9,7.8-2.8.1.2.1.1.1.3-1.4.9-2.8,1.8-4.1,2.7a1.268,1.268,0,0,1,.1.6c1.7.3,3.3.7,5.8,1.2-1.4.7-2.3,1.2-3.2,1.7-.8.5-1.7.9-2.7,1.5-1.6,1.8-.9,3.9.2,6.3-1.3-.2-2.3-.3-3.7-.5l1,2.1a3.487,3.487,0,0,1-4.4,2.2c1.1,1,2.5,2.2,4,3.6-1.1.6-1.9,1-3.2,1.7h2.5c-.7.5-1.2.9-1.9,1.4.6.1.9.2,1,.2-.6.9-1.3,1.8-2,2.7-1-1-2.5-1.8-2.9-2.9a15.354,15.354,0,0,1-1.2-6.3c.2-4.6.9-9.1,1.4-13.7a2.712,2.712,0,0,1,2.8-2.7C61.7,22.5,62.7,21.8,64,21.3Z"/></g><g class="b"><path d="M152.6,20.5h0c.1-1.7,0-3.5.1-5.3.2-2,.6-3.9.9-6.1,1.6.7,3.3,1.9,4.1-.9,1.3.8,2.3,1.5,3.3,2.2L153.5,20A1.623,1.623,0,0,1,152.6,20.5Z"/></g><g class="b"><path d="M159.2,23.4h0c1.6-1.2,3.2-2.5,5-3.8-.3,1.2-1.3,2.9-.8,3.4,1.5,1.7-.1,2.5-.6,3.7,0,.1-.3.1-.5.3-.2-.4-.5-.9-.8-1.5-.9,1.5-1.8,2.8-2.6,4.1l-.6-.3c.2-.6.5-1.3.8-2.2a19.138,19.138,0,0,1-2.1.4C157.8,25.9,158.5,24.7,159.2,23.4Z"/></g><g class="b"><path d="M85.9,18.7c2.3,2.6,4.7,5.3,7,7.9a4.876,4.876,0,0,1,.3.7c-.8-.3-1.4-.5-2.6-.9.6,1.1.9,1.9,1.4,2.8a25.711,25.711,0,0,1-2.9-1.5c-1.3-1-3.6-1.5-1.9-4,.3-.4-.5-1.5-.7-2.2-.2-.9-.4-1.8-.6-2.8Z"/></g><g class="b"><path d="M94,37.2c-1.1-1.2-2.2-2.5-3.2-3.6.3,0,1,.2,1.6.3.1-.1.2-.3.3-.4l-6.9-6.6.3-.3c2.1,1.6,4.1,3.3,6.3,4.7s3.8,3,4,5.8a19.268,19.268,0,0,0-2.4.1Z"/></g><g class="b"><path d="M115.6,49.4a52.923,52.923,0,0,1-3.6-6c-.5-1.1.1-2.6.3-4.2C115.4,41,116.3,44.4,115.6,49.4Z"/></g><g class="b"><path d="M156.2,33.7l-1.2.6c-.1-.2-.3-.5-.4-.7,3-2.2,5.9-4.3,8.9-6.5.2.2.3.4.5.6-1.3,1-2.5,2-4,3.2a8.4,8.4,0,0,0,1.2.4c-1.5.8-3,1.5-4.4,2.3A3.536,3.536,0,0,0,156.2,33.7Z"/></g><g class="b"><path d="M141.3,27.7c.4.5,1,1.1,1,1.5-.2,2.8-.6,5.5-1,8.3,0,.2-.2.4-.7,1.1V28A3.629,3.629,0,0,1,141.3,27.7Z"/></g><g class="b"><path d="M156.2,33.7a4.332,4.332,0,0,0,.5-.1h3.2c-2.2,1.6-3.9,2.7-5.5,3.9-.2-.3-.5-.5-.7-.8C154.5,35.7,155.3,34.7,156.2,33.7Z"/></g><g class="b"><path d="M94,37.2c-3.7-.2-7.4-.3-10.8-2.1A26.993,26.993,0,0,1,94,37.2Z"/></g><g class="b"><path d="M160.8,35h5.7c-1.3,1.2-5.1,2.1-8.2,1.8a30.4,30.4,0,0,1,2.5-1.8Z"/></g><g class="b"><path d="M109.2,38.3c-.2-1.5-.3-2.9-.6-4.4-.2-1.4-.5-2.7-.6-4.1a5.547,5.547,0,0,1,.3-1.7c.4.5,1.2.9,1.2,1.4.1,2.9.1,5.9.1,8.8C109.4,38.2,109.3,38.3,109.2,38.3Z"/></g><g class="b"><path d="M177.3,43.6a12.244,12.244,0,0,1-2.1-.3,18.328,18.328,0,0,1-.6-1.9C177.7,40.9,177.7,40.9,177.3,43.6Z"/></g><g class="b"><path d="M75,43.4c-.3,0-1.1.1-2,.2-.4-2.6-.4-2.6,2.6-2.1C75.5,41.9,75.3,42.4,75,43.4Z"/></g><g class="b"><path d="M84.8,32.9c2,.6,4.1,1.2,6.1,1.8-.1.2-.1.4-.2.6-2.1-.5-4.1-1-6.2-1.5Z"/></g><g class="b"><path d="M160.9,35c-.5.1-.9.2-1.4.3-.1-.2-.1-.4-.2-.6,2.1-.6,4.1-1.2,6.2-1.9a2.353,2.353,0,0,1,.2.8c-1.6.5-3.3,1-4.8,1.4Z"/></g><g class="b"><path class="c" d="M104.8,51.3c-3.9,5-6.9,5.5-12.8,2.6-2.4-1.2-3.5-3.3-2.8-5.5C92.8,54.6,98.6,55.4,104.8,51.3Z"/></g><g class="b"><path class="c" d="M160.9,46.5c.9,3.7-.2,6.1-3,7.4-6,2.9-8.9,2.4-12-1.9a9.985,9.985,0,0,0,9.1,1.5C158.2,52.6,160.2,50.2,160.9,46.5Z"/></g><path d="M14.8,162.6,8.7,151.7l-2.2,2.6v8.3H0V136H6.5v9.4l7.7-9.4h8l-9.1,10.8,9.4,15.8Z"/><path d="M42,162.6l-1.2-4H32.6l-1.3,4H24.5L34.2,136h5l9.7,26.6Zm-5.2-16.5-2.4,7.1H39Z"/><path d="M61.2,141.8v20.8H54.7V141.8H48.2V136H67.8v5.8Z"/><path d="M98.9,162.6V149.9l-3.8,6.6H90.9l-3.8-6.6v12.7H80.6V136H87l6,11.7L99,136h6.4v26.6Z"/><path d="M127.8,159.9a9.853,9.853,0,0,1-7.4,3,9.5,9.5,0,0,1-7.4-3c-2.8-2.8-2.7-6.5-2.7-10.5s-.1-7.7,2.7-10.5a9.853,9.853,0,0,1,7.4-3,9.5,9.5,0,0,1,7.4,3c2.8,2.8,2.7,6.5,2.7,10.5S130.6,157.1,127.8,159.9ZM123,142.8a3.388,3.388,0,0,0-2.6-1.2,3.1,3.1,0,0,0-2.6,1.2c-.6.8-1,1.7-1,6.5,0,4.9.4,5.7,1,6.5a3.417,3.417,0,0,0,5.2,0c.6-.8,1-1.6,1-6.5C123.9,144.5,123.6,143.6,123,142.8Z"/><path d="M146.8,141.8v20.8h-6.5V141.8h-6.5V136h19.6v5.8Z"/><path d="M174.1,159.9a9.853,9.853,0,0,1-7.4,3,9.357,9.357,0,0,1-7.4-3c-2.8-2.8-2.7-6.5-2.7-10.5s-.1-7.7,2.7-10.5a9.853,9.853,0,0,1,7.4-3,9.357,9.357,0,0,1,7.4,3c2.8,2.8,2.7,6.5,2.7,10.5S176.9,157.1,174.1,159.9Zm-4.9-17.1a3.388,3.388,0,0,0-2.6-1.2,3.1,3.1,0,0,0-2.6,1.2c-.6.8-1,1.7-1,6.5,0,4.9.4,5.7,1,6.5a3.417,3.417,0,0,0,5.2,0c.6-.8,1-1.6,1-6.5C170.2,144.5,169.8,143.6,169.2,142.8Z"/><path d="M194.9,162.6l-4.7-9.9H188v9.9h-6.5V136H192c5.9,0,9.1,4.2,9.1,8.6a7.788,7.788,0,0,1-4.3,7l5.8,11.1h-7.7Zm-3.2-20.7H188v5.4h3.7a2.652,2.652,0,0,0,2.8-2.7A2.6,2.6,0,0,0,191.7,141.9Z"/><path d="M206.2,162.6V136h18.1v5.8H212.7v4.4h9.9V152h-9.9v4.7h11.6v5.8H206.2Z"/><path d="M244.3,162.6l-8.5-13.4v13.4h-6.5V136H235l8.5,13.4V136H250v26.6Z"/><path d="M10.3,174.5v6.9H9.5v-6.9H7.3v-.7h5.2v.7Z"/><path d="M19,181.4,17.3,178H15.5v3.4h-.8v-7.6h2.9a2.1,2.1,0,0,1,2.3,2.1,1.96,1.96,0,0,1-1.7,2l1.8,3.4H19Zm-1.5-6.9h-2v2.8h2a1.342,1.342,0,0,0,1.5-1.4A1.391,1.391,0,0,0,17.5,174.5Z"/><path d="M22.2,181.4v-7.6H23v7.6Z"/><path d="M28.3,181.5a2.522,2.522,0,0,1-2.6-2.6v-5.1h.8v5a1.71,1.71,0,0,0,1.8,1.9,1.76,1.76,0,0,0,1.8-1.9v-5H31v5.1A2.606,2.606,0,0,1,28.3,181.5Z"/><path d="M39.3,181.4v-5.8l-2.1,4.6h-.7l-2.1-4.6v5.8h-.8v-7.6h.8l2.5,5.4,2.4-5.4h.8v7.6Z"/><path d="M45.6,178.3h-2v3.1h-.8v-7.6h2.8a2.127,2.127,0,0,1,2.3,2.2A2.2,2.2,0,0,1,45.6,178.3Zm-.1-3.8H43.6v3h1.9a1.5,1.5,0,1,0,0-3Z"/><path d="M54.6,181.4v-3.5H51v3.5h-.8v-7.6H51v3.4h3.6v-3.4h.8v7.6Z"/><path d="M62.8,181.5a3.392,3.392,0,0,1-2.6-1l.6-.6a2.646,2.646,0,0,0,2.1.8c1.1,0,1.8-.5,1.8-1.4a1.284,1.284,0,0,0-.4-1,1.565,1.565,0,0,0-1-.4l-.9-.1a2.594,2.594,0,0,1-1.4-.6,1.678,1.678,0,0,1-.6-1.4c0-1.3.9-2.1,2.4-2.1a3.094,3.094,0,0,1,2.3.8l-.5.5a2.666,2.666,0,0,0-1.8-.7,1.427,1.427,0,0,0-1.6,1.4,1.222,1.222,0,0,0,.3.9,1.528,1.528,0,0,0,1,.4l.8.1a3.17,3.17,0,0,1,1.4.5,2.035,2.035,0,0,1,.6,1.5C65.4,180.7,64.3,181.5,62.8,181.5Z"/><path d="M70.5,178.3h-2v3.1h-.8v-7.6h2.8a2.127,2.127,0,0,1,2.3,2.2A2.2,2.2,0,0,1,70.5,178.3Zm-.1-3.8H68.5v3h1.9a1.5,1.5,0,1,0,0-3Z"/><path d="M75.1,181.4v-7.6h4.7v.7H75.9v2.7h3.3v.7H75.9v2.7h3.9v.7H75.1Z"/><path d="M84.3,181.5a2.732,2.732,0,0,1-1.9-.8c-.7-.7-.7-1.5-.7-3.1s0-2.4.7-3.1a2.732,2.732,0,0,1,1.9-.8,2.453,2.453,0,0,1,2.6,2.3h-.8a1.819,1.819,0,0,0-1.8-1.5,1.9,1.9,0,0,0-1.3.5c-.5.5-.5,1-.5,2.6s.1,2.1.5,2.6a1.9,1.9,0,0,0,1.3.5,1.746,1.746,0,0,0,1.8-1.5h.8A2.524,2.524,0,0,1,84.3,181.5Z"/><path d="M89.3,181.4v-7.6h.8v7.6Z"/><path d="M97.5,181.4l-.6-1.7H93.6l-.6,1.7h-.9l2.8-7.6h.7l2.8,7.6ZM95.3,175l-1.4,4h2.8Z"/><path d="M100.4,181.4v-7.6h.8v6.9h3.9v.7h-4.7Z"/><path d="M107.2,181.4v-7.6h.8v7.6Z"/><path d="M112.8,181.5a3.392,3.392,0,0,1-2.6-1l.6-.6a2.646,2.646,0,0,0,2.1.8c1.1,0,1.8-.5,1.8-1.4a1.284,1.284,0,0,0-.4-1,1.565,1.565,0,0,0-1-.4l-.9-.1a2.594,2.594,0,0,1-1.4-.6,1.678,1.678,0,0,1-.6-1.4c0-1.3.9-2.1,2.4-2.1a3.094,3.094,0,0,1,2.3.8l-.5.5a2.666,2.666,0,0,0-1.8-.7,1.427,1.427,0,0,0-1.6,1.4,1.222,1.222,0,0,0,.3.9,1.528,1.528,0,0,0,1,.4l.8.1a3.17,3.17,0,0,1,1.4.5,2.035,2.035,0,0,1,.6,1.5C115.5,180.7,114.4,181.5,112.8,181.5Z"/><path d="M120.2,174.5v6.9h-.8v-6.9h-2.2v-.7h5.2v.7Z"/><path d="M126.7,182.2h-.8l3-9.2h.8Z"/><path d="M138.8,181.4l-4-6.1v6.1H134v-7.6h.8l4,6.1v-6.1h.8v7.6Z"/><path d="M146.7,180.7a2.732,2.732,0,0,1-1.9.8,2.56,2.56,0,0,1-1.9-.8c-.7-.7-.7-1.5-.7-3.1s0-2.4.7-3.1a2.732,2.732,0,0,1,1.9-.8,2.56,2.56,0,0,1,1.9.8c.7.7.7,1.5.7,3.1S147.4,180,146.7,180.7ZM146,175a1.94,1.94,0,0,0-2.6,0c-.5.5-.5,1-.5,2.6s.1,2.1.5,2.6a1.94,1.94,0,0,0,2.6,0c.5-.5.5-1,.5-2.6C146.6,176,146.5,175.5,146,175Z"/><path d="M154.2,180.7a2.732,2.732,0,0,1-1.9.8,2.56,2.56,0,0,1-1.9-.8c-.7-.7-.7-1.5-.7-3.1s0-2.4.7-3.1a2.732,2.732,0,0,1,1.9-.8,2.56,2.56,0,0,1,1.9.8c.7.7.7,1.5.7,3.1S155,180,154.2,180.7Zm-.6-5.7a1.94,1.94,0,0,0-2.6,0c-.5.5-.5,1-.5,2.6s.1,2.1.5,2.6a1.94,1.94,0,0,0,2.6,0c.5-.5.5-1,.5-2.6S154.1,175.5,153.6,175Z"/><path d="M161.8,181.4l-1.7-3.4h-1.8v3.4h-.8v-7.6h2.9a2.1,2.1,0,0,1,2.3,2.1,1.96,1.96,0,0,1-1.7,2l1.8,3.4h-1Zm-1.5-6.9h-2v2.8h2a1.4,1.4,0,1,0,0-2.8Z"/><path d="M169.6,180.7a2.489,2.489,0,0,1-1.9.7H165v-7.6h2.6a2.352,2.352,0,0,1,1.9.7c.8.8.7,2,.7,3S170.3,179.9,169.6,180.7Zm-.6-5.6a2.035,2.035,0,0,0-1.5-.6h-1.7v6.1h1.7a1.717,1.717,0,0,0,1.5-.6c.5-.5.5-1.7.5-2.6A3.436,3.436,0,0,0,169,175.1Z"/><path d="M178.8,181.4H178l-1.7-6.1-1.7,6.1h-.8l-1.9-7.6h.9l1.5,6.1,1.7-6.1h.7l1.7,6.1,1.5-6.1h.9Z"/><path d="M182.8,181.4v-7.6h.8v7.6Z"/><path d="M187.4,181.5a2.06,2.06,0,0,1-1.7-.7l.5-.5a1.5,1.5,0,0,0,1.2.5c1,0,1.6-.6,1.6-1.8v-5.2h.8v5.3A2.257,2.257,0,0,1,187.4,181.5Z"/><path d="M197.1,181.4l-2.3-4-1.6,1.9v2.1h-.8v-7.6h.8v4.4l3.5-4.4h1l-2.4,2.9,2.7,4.7h-.9Z"/><path d="M200.1,181.4v-7.6h4.7v.7H201v2.7h3.3v.7H201v2.7h3.9v.7h-4.8Z"/><path d="M211.5,181.4l-1.7-3.4H208v3.4h-.8v-7.6h2.9a2.1,2.1,0,0,1,2.3,2.1,1.96,1.96,0,0,1-1.7,2l1.8,3.4h-1Zm-1.5-6.9h-2v2.8h2a1.4,1.4,0,1,0,0-2.8Z"/><path d="M219.2,181.4v-3.5h-3.6v3.5h-.8v-7.6h.8v3.4h3.6v-3.4h.8v7.6Z"/><path d="M227,180.7a2.732,2.732,0,0,1-1.9.8,2.56,2.56,0,0,1-1.9-.8c-.7-.7-.7-1.5-.7-3.1s0-2.4.7-3.1a2.732,2.732,0,0,1,1.9-.8,2.56,2.56,0,0,1,1.9.8c.7.7.7,1.5.7,3.1S227.8,180,227,180.7Zm-.6-5.7a1.94,1.94,0,0,0-2.6,0c-.5.5-.5,1-.5,2.6s.1,2.1.5,2.6a1.94,1.94,0,0,0,2.6,0c.5-.5.5-1,.5-2.6S226.9,175.5,226.4,175Z"/><path d="M232.8,181.5a2.522,2.522,0,0,1-2.6-2.6v-5.1h.8v5a1.71,1.71,0,0,0,1.8,1.9,1.76,1.76,0,0,0,1.8-1.9v-5h.8v5.1A2.522,2.522,0,0,1,232.8,181.5Z"/><path d="M240.5,174.5v6.9h-.8v-6.9h-2.2v-.7h5.2v.7Z"/></g></svg>