<svg xmlns="http://www.w3.org/2000/svg" xmlns:xlink="http://www.w3.org/1999/xlink" viewBox="58 -0.38 132 85.38"><defs><style>.a{fill:#feb41c;stroke:#000;stroke-linecap:round;stroke-miterlimit:10;stroke-width:2.559px;}.b{clip-path:url(#a);}.c{fill:#fff;}</style><clipPath id="a"><path d="M34.3,1H97.7a4.2,4.2,0,0,1,3.6,6.3L69.6,62.5a4.136,4.136,0,0,1-7.2,0L30.7,7.2A4.144,4.144,0,0,1,34.3,1Z"/></clipPath></defs><g transform="translate(58 -1)"><path class="a" d="M34.6,1.9H97.3a4.125,4.125,0,0,1,3.6,6.2L69.5,62.7a4.136,4.136,0,0,1-7.2,0L31,8.1A4.125,4.125,0,0,1,34.6,1.9Z"/><g class="b"><path d="M80.5,10.8c-.6,1.5-1.3,3.1-1.8,4.6-.4,1.1-.5,2.2-.9,3.3a15.282,15.282,0,0,1-1.6,2.6,3.63,3.63,0,0,1-.3-.7c-.2.3-.5.6-.8,1-.6-1.3,1.5-1.9.5-3.4-.6-.9,0-2.5-.1-3.8s-.3-2.6-.5-3.9h-.4l.2,1.9h-.1c-.2-.6-.4-1.2-.7-2a.914.914,0,0,0-.3.5c.6,2.2-.5,4.1-1.4,5.9-.7,1.4-.3,2.7-.3,4.2.3-.7.6-1.4.9-2.2h.2c-.1.6-.1,1.2-.2,1.8a.349.349,0,0,1-.1.2c1.1,1.9-1,2.8-1.3,4.3-.2.9-.4,1.8-.6,2.9a10.865,10.865,0,0,1,0-4.4,4.8,4.8,0,0,0,.1-3.9,26.993,26.993,0,0,1-1.2-4.3,1.337,1.337,0,0,0-.7-.8l.3,1.2c.2.6.2,1.1-.6,1.4-.3.1-.5.7-.5,1a27.978,27.978,0,0,0,0,2.9c-.7-1.3.3-3-1.8-3.9v8H66V20.1h-.3v2.3h-.1c-.3-2.2-.6-4.3-.9-6.5h-.2c-.2,1.4-.5,2.8-.7,4.2h-.2a12.052,12.052,0,0,0,0-1.9,3.528,3.528,0,0,0-.8-1.3,5,5,0,0,1-.5-.7c1-1,.4-2,0-2.8-.4,2-.8,4.1-1.3,6.4-.1-.9-.1-1.6-.2-2.3h-.3l-.2,2.3c.1,0,.1,0,.2-.1-.7-2.3-1.3-4.6-2-6.9l-.1.1V10.4a.6.6,0,0,1-.4-.1l-.6,1.8h-.1c0-.6.1-1.3.1-1.9a13.353,13.353,0,0,0-.6,7.9,6.125,6.125,0,0,0-.4-.6c-.1,1-.2,2-.4,3.1-.8-.9-1.8-1.5-1.8-2.9a13.635,13.635,0,0,0-.4-1.7,40.5,40.5,0,0,1-1.2-5c-.1.4-.2.7-.3,1-1.6-2-3.3-4.3-4.9-6.4a14.96,14.96,0,0,0,1.8-.9c.1.5.3,1,.4,1.6.1-.8.3-1.5.4-2.1l.4.1c-.1.4-.2.8-.3,1.4a10.412,10.412,0,0,1,1.2-.5c1,3,2,5.9,2.9,8.8h.2c-.4-1.6-.8-3.2-1.1-4.9a12.212,12.212,0,0,1-.1-2.7c0-.1.2-.3.3-.4,1.2-.7,2.4-1.3,3.7-2,.1.2.2.5.4,1,.8-1.2,1.6-2.3,2.5-3.5v.9c.2,0,.1,0,.3.1.2-.3.4-.7.6-1a1.606,1.606,0,0,0,2.6-.3c0,.3.1.6.1,1,.1-.2.2-.2.3-.3C64.7.1,65.4-.2,67.3.7c.2.1.6,0,.9,0,.1.4.3.9.5,1.8.1-.5.1-.8.2-1.1.4.2.6,1.5,1.1.2a11.485,11.485,0,0,1,.8,1,5.008,5.008,0,0,0,.8-.7s.3.2.7.5a4.1,4.1,0,0,1,.1-1.1c1,1.3,1.9,2.5,2.8,3.6.1-.1.1,0,.2-.1-.1-.5-.2-1-.3-1.8.4.5.9,1,1.3,1.6.8,1.2,1.1,1.4,2.7.9.8,2.9-1.3,5.4-1,8.3.5-1.8.9-3.4,1.5-5.3.4,1,.7,1.7.9,2.3Z"/></g><g class="b"><path d="M41,31.2c.4.1.9.2,1.3.3,0-.1,0-.1.1-.2-.7-.4-1.5-.8-2.1-1.1-.5.6-.8,1-1.1,1.4a1.854,1.854,0,0,0-.2.7V35c0,.1-.4.2-.6.3a6.372,6.372,0,0,1,.7.2c-.3.6-.6,1.2-.9,1.9h1.6s.6,2.4-1.2,1.7c-.5-.2-1.9-.9-.6-2.1-1.6-.8-1.6-.8-.7-1.8a8.376,8.376,0,0,1-1,.2,1.337,1.337,0,0,1-.9.1,8.65,8.65,0,0,1,1-.7H34.6a20.742,20.742,0,0,1,2.1-.8.6.6,0,0,0-.1-.4c-1.6,1.1-3.4.6-4.8,0a3.6,3.6,0,0,1-2.2-3.8c.8-.2,1.8-.4,2.7-.6,0,.1,0,.1.1.2-.3.1-.7.2-1,.3v.2c.8.1,1.4,1.2,2.3.4a4.352,4.352,0,0,1,1.5-.8c-.1-.2-.1-.1-.1-.3-.6.2-1.2.5-1.8.7-.1-.1-.1-.1-.1-.2,1.5-1.4,3-2.8,4.7-4.3a8.8,8.8,0,0,0,.6,1,16.942,16.942,0,0,1,5.6-4c.7-.3,1.4-.7,1.3-1.7,4.3.6,8.7,1.4,11.7,5,1.3,1.5,1.5,3.7,1.4,5.7,0,.9-.3,1.7,1,1.8.1,0,.3.6.3,1,0,.2-.3.5-.5.7,1.3-.1,1.7.3,1.7,1.5,0,1.1-.1,2.2.8,3.1.2.2.1.9.1,1.3-.1,2,.6,2.9,2.4,2.6a34.648,34.648,0,0,1,4.6-.3c.9.1,4.1,0,4.4.9.6,1.9-2.8,3.9-2.8,3.9l-.6-.9a1.48,1.48,0,0,1-.2,1c-1.5,2.8-2.9,4-2.7,5a1.928,1.928,0,0,0,1.4,1c1.9.3,3.9.5,5.8.8.3,0,.5.4.7.8-5.4.3-16.1.4-16.1.4v-.3c-.3.1-.7.1-1,.2,0-.1-.1-.3-.1-.4l1.8-.6c1.6-.3,3.3-.4,4.9-.8,1.1-.2,1.4-1.8.6-2.8L62.6,48a1.645,1.645,0,0,1-.2-1c-.1.2-.3.4-.5.8-1.1-.8-2.4-1.3-2.9-2.7-.1-.4-.1-1.1.2-1.3,1.7-1.5,1.7-3.3.9-5.1a3.359,3.359,0,0,1-.2-2.2c.1-.2,0-.5,0-.6-.6.6-1.3,1.2-1.9,1.8-.1-.1-.1-.1-.2-.1.2-.7.4-1.5.6-2.5-.7.6-1.2,1-1.7,1.4l-.2-.2c.4-1.2.8-2.4,1.2-3.7a1.628,1.628,0,0,1-.6-.3c-.8-1.9-2.3-1.2-3.8-1.2a9.854,9.854,0,0,1-8.4-4.2,6.913,6.913,0,0,1-1-2.5c-.3-1.1-1.1-1.1-1.9-.7a4.978,4.978,0,0,0-1.7,1.5c-.2.3.2,1.1.5,1.4,1.7,1.3,3.6,2.4,5.4,3.6,1.1.7,2.2,1.4,3.2,2.1.4.2.7.4,1.1.6a23.074,23.074,0,0,0,2.8,1v1.5c-.3.5-.8,1.3-1.2,2.1.1.1.2.1.3.2-.5.2-.9.3-1.5.5.6.5,1.1,1,1.6,1.4-.1.2-.2.3-.3.5-2.2-1-4.7-1.4-6.5-3.4a3.75,3.75,0,0,0,1.1-.1c.1,0,.1-.1.4-.3-1.1-.4-2-.8-3.2-1.3.6,0,.9.1,1.3.1,0-.1,0-.1.1-.2a6.117,6.117,0,0,0-1.2-.5c.5-1.5,1.8-.4,2.5-.8-.7-.4-1.4-.8-2.2-1.2.1-.2,0-.2.1-.4h1.6v-.4l-3.3.1c0,.1,0,.1-.1.2l1.2.6c-.1.1-.1.3-.2.4-1-.5-1.9-1-2.9-1.5C41,31.4,40.9,31.4,41,31.2Zm14.3-4.1c-3.3,2.2-6.4,1.7-8.3-1.5a2.455,2.455,0,0,0,1.5,2.9C51.7,30,53.3,29.7,55.3,27.1ZM32.7,31.3c.8.2.5,2.1,2.1,1C34.1,31.8,34.2,30.3,32.7,31.3Z"/></g><g class="b"><path d="M87.2,33c-.7.2-1.3.3-2.1.5.9.5,2.2-.6,2.6.9-.4.1-.9.3-1.5.5l.7.4c-.7.3-1.3.6-2.2,1l1.2.5c-1,1.4-2.6,1.8-4,2.4-.2.1-.4.3-.6.4s-.6.1-.6,0a2.935,2.935,0,0,1-.3-1l.8-.4c0-.2,0-.2-.1-.3a21.053,21.053,0,0,0-2.5-.2c-.3,0-.7.1-.9,0-.3-.2-.4-.6-.6-1l.9-.3c-.1,0-.1-.1-.2-.1L79,34.8c.3-.4,1.2-.7.3-1.5a7.4,7.4,0,0,0,4.6-2c1.4-1.3,3.3-1.9,4.9-3a23.393,23.393,0,0,0,3-2.5c-.3-.4-.3-.5-.4-.6-2.7-2.4-2.9-2.3-4.3,1.1A6.922,6.922,0,0,1,84.7,29c-2.2,1.6-4.6,2.6-7.4,1.7a1.15,1.15,0,0,0-1.4.5c-1.4,1.5-1.2,2.8.1,4.2.1.1,0,.4,0,.7-.6-.4-1.2-.8-1.9-1.3,0,.8.1,1.3.1,1.9l-.9.3c-.4-.7-.7-1.4-1.1-2.2a.367.367,0,0,0-.3.1c.1-1.2.8-.2,1.3-.1-.2-.7-.4-1.3-.6-1.9,1.2.1,1.4-.3,1.3-1.3-.2-2.6.1-5.1,2.3-6.9a13.767,13.767,0,0,1,8-3.4,1.929,1.929,0,0,0,1-.3c.7-.4,1.2-.5,1.5.4a1.47,1.47,0,0,0,.5.6c2.1,1.2,4.1,2.4,6.3,3.7-.1-.5-.2-1.1-.3-2,.7.7,1.2,1.1,1.6,1.6s.6,1.2,1,1.7a9.956,9.956,0,0,0,1.4,1.5,11.905,11.905,0,0,0,1.5.9,1.466,1.466,0,0,1-.2.4,12.2,12.2,0,0,1-1.7-.7c1.3,1.5,1.8,1.6,3.7.6-.5-.1-.9-.3-1.3-.4,0-.1,0-.2.1-.2,1,.2,2,.4,2.9.6a3.324,3.324,0,0,1-2.3,3.8c-1.5.5-3.2,1.1-4.7-.4,0,.2-.1.3-.1.5.6.3,1.3.6,2,1H95.5c.5.3.9.5,1.2.7-.1.1,0,.1-.1.2-.5-.2-1-.4-1.6-.6.4.6,1.1,1.2-.2,1.5-.2,0-.3.9-.5,1.5-.6-.4-.6,2.2-1.8.6-.2-.3-.7-.9.3-1-.2-.1-.4-.2-.9-.4l1.3-.3a9.484,9.484,0,0,1-.5-2.3,24.3,24.3,0,0,0,0-2.7,4.013,4.013,0,0,0-1.3-1.6c-.2-.2-.9.3-1.3.7h.8A4.282,4.282,0,0,1,87.2,33a15.044,15.044,0,0,1,1.8-.9c-1.9-.7-1.8-.1-1.8-.1Zm-2.3-8.5a4.323,4.323,0,0,1-3.1,3.7,5.2,5.2,0,0,1-4.8-.8c1.6,2.3,3.2,2.5,6.4,1C84.8,27.7,85.4,26.5,84.9,24.5Z"/></g><g class="b"><path d="M84,12.3c-.9.6-1.8,1.3-2.8,2.1v-1c-.5.7-1,1.3-1.4,1.9-.2-.1-.3-.2-.5-.3.8-1.5,1.5-3.2,2.4-4.6a54.5,54.5,0,0,1,3.8-4.6c.7-.7,1-.7,1.8,0C90,3.4,92.9,1.3,97,1.9c-.7.6-1.4,1.1-2.2,1.7a3.329,3.329,0,0,1,.6.3c-.1.1-.1.2-.2.2-.6.5-1.1,1.1-1.7,1.5a30.627,30.627,0,0,1-2.9,2.1c-.2.1-.6-.2-1.1-.5-2.3,1.1-3.9,3.2-5.5,5.1Z"/></g><g class="b"><path d="M93.8,13.2c1.1-.2,2-.4,3.2-.7-1.1-.7-1.8-1.2-2.5-1.6,0-.1,0-.1.1-.1,1.4.5,2.8.9,4.2,1.4.1-.2.1-.1.2-.3-.3-.3-.7-.5-1.2-.9,1.3.4,2.4.7,3.4,1.1a1.533,1.533,0,0,1,.7,1c.2,1.4.4,2.8.6,4.3.1,1.1.1,2.2.2,3.3.2,1.9-.8,3.2-1.9,4.6a.614.614,0,0,1-.6.1c-.5-.2-.8-1.8-.4-2.4-.4-.2-.7-.4-1.3-.7.6-.7,1.1-1.4,1.6-1.9-.2-.1-1,0-1.3-.4s-1.4-.8-.5-1.7H96.8c0-.2.1-.3.1-.5.7-2.1.3-3-1.7-3.8C94.8,13.8,94.4,13.5,93.8,13.2Z"/></g><g class="b"><path d="M45.4,9.9c-.5-1.4-1.8-2.7-2.9-2.4-1.7.4-2.5-.6-3.5-1.3-.8-.6-1.9-1.3-1.9-1.9C37,3,35.8,2.9,35.4,2.2c1.3-1.2,5.8,0,9.4,3.8l.3-1.2c.7.5,1.3,1.1,2,1.6.2.2.4.3.5.5.8,1.7,2.5,2.8,3.3,4.5a25.154,25.154,0,0,1,1.2,2.9c-.1.1-.3.1-.4.2-.3-.3-.5-.6-.9-1,.1.5.1.8.2,1.1-.1.1-.2.1-.3.2-1.5-1.5-3-2.9-4.5-4.4a1.769,1.769,0,0,0-.8-.5Z"/></g><g class="b"><path d="M33.8,11.3a4.35,4.35,0,0,1-.6.7.769.769,0,0,1,.2.3c1.4-.5,2.8-1,4.1-1.5,0,.1,0,.1.1.2-.7.5-1.5.9-2.2,1.4,0,.2,0,.2.1.3.9.2,1.8.4,3.1.6-.7.4-1.2.6-1.7.9-.4.2-.9.5-1.4.8-.9.9-.5,2.1.1,3.3-.7-.1-1.2-.2-2-.3l.5,1.1a1.727,1.727,0,0,1-2.3,1.1c.6.5,1.3,1.2,2.1,1.9-.6.3-1,.5-1.7.9h1.3c-.4.3-.6.5-1,.8a4.2,4.2,0,0,1,.5.2c-.3.5-.7.9-1,1.4-.5-.5-1.3-.9-1.6-1.6a7.451,7.451,0,0,1-.6-3.3c.1-2.4.5-4.8.7-7.2A1.394,1.394,0,0,1,32,11.9,7.59,7.59,0,0,0,33.8,11.3Z"/></g><g class="b"><path d="M80.6,10.8h0A26.2,26.2,0,0,1,80.7,8c.1-1,.3-2.1.5-3.2.8.3,1.8,1,2.2-.5.7.5,1.2.8,1.7,1.2-1.3,1.7-2.6,3.4-4,5.1C81,10.7,80.7,10.7,80.6,10.8Z"/></g><g class="b"><path d="M84.1,12.3h0c.8-.6,1.7-1.3,2.6-2-.2.6-.7,1.5-.4,1.8.8.9-.1,1.3-.3,1.9,0,.1-.1.1-.3.1a5.9,5.9,0,0,0-.4-.8c-.5.8-.9,1.5-1.4,2.2-.1,0-.2-.1-.3-.1a8.338,8.338,0,0,0,.4-1.2c-.4.1-.7.1-1.1.2Z"/></g><g class="b"><path d="M45.3,9.9c1.2,1.4,2.5,2.8,3.7,4.2.1.1.1.2.2.4a11.215,11.215,0,0,1-1.3-.5c.3.6.5,1,.8,1.5-.6-.3-1.1-.5-1.6-.8-.7-.5-1.9-.8-1-2.1.1-.2-.3-.8-.4-1.2-.2-.5-.2-1-.4-1.5Z"/></g><g class="b"><path d="M49.6,19.7c-.6-.7-1.2-1.3-1.7-1.9.2,0,.5.1.9.1.1-.1.1-.2.2-.2-1.2-1.2-2.4-2.3-3.7-3.5l.2-.2c1.1.8,2.2,1.7,3.3,2.5a3.692,3.692,0,0,1,2.1,3.1,6.151,6.151,0,0,0-1.3.1Z"/></g><g class="b"><path d="M61,26.1c-.6-1.1-1.4-2.1-1.9-3.2a8.47,8.47,0,0,1,.1-2.2C60.9,21.6,61.4,23.4,61,26.1Z"/></g><g class="b"><path d="M82.4,17.8l-.6.3c-.1-.1-.1-.2-.2-.4,1.6-1.1,3.1-2.3,4.7-3.4.1.1.2.2.2.3-.7.5-1.3,1.1-2.1,1.7.2.1.4.1.6.2-.8.4-1.6.8-2.3,1.2C82.6,17.7,82.5,17.8,82.4,17.8Z"/></g><g class="b"><path d="M74.6,14.6c.2.3.6.6.5.8-.1,1.5-.3,2.9-.5,4.4,0,.1-.1.2-.4.6V14.8C74.4,14.7,74.5,14.7,74.6,14.6Z"/></g><g class="b"><path d="M82.4,17.8a.367.367,0,0,0,.3-.1h1.7c-1.2.8-2,1.4-2.9,2.1-.1-.1-.2-.3-.4-.4C81.6,18.8,82,18.3,82.4,17.8Z"/></g><g class="b"><path d="M49.6,19.7a13.8,13.8,0,0,1-5.7-1.1,12.362,12.362,0,0,1,5.7,1.1Z"/></g><g class="b"><path d="M84.9,18.5h3c-.7.7-2.7,1.1-4.4.9a8.509,8.509,0,0,0,1.4-.9Z"/></g><g class="b"><path d="M57.7,20.2c-.1-.8-.2-1.6-.3-2.3a14.6,14.6,0,0,1-.3-2.2c0-.3.1-.6.1-.9.2.2.6.5.6.7.1,1.5,0,3.1,0,4.6A.1.1,0,0,1,57.7,20.2Z"/></g><g class="b"><path d="M93.6,23a5.94,5.94,0,0,0-1.1-.1c-.2-.5-.2-.8-.3-1C93.8,21.6,93.8,21.6,93.6,23Z"/></g><g class="b"><path d="M39.6,22.9c-.1,0-.6.1-1,.1-.2-1.4-.2-1.4,1.4-1.1C39.9,22.1,39.8,22.4,39.6,22.9Z"/></g><g class="b"><path d="M44.7,17.4c1.1.3,2.2.6,3.2.9,0,.1-.1.2-.1.3-1.1-.3-2.2-.5-3.3-.8A.4.4,0,0,0,44.7,17.4Z"/></g><g class="b"><path d="M84.9,18.5c-.2,0-.5.1-.7.1,0-.1-.1-.2-.1-.3,1.1-.3,2.2-.7,3.2-1,0,.1.1.3.1.4a18.286,18.286,0,0,1-2.5.8Z"/></g><g class="b"><path class="c" d="M55.3,27.1c-2.1,2.7-3.7,2.9-6.8,1.4A2.409,2.409,0,0,1,47,25.6C49,28.8,52.1,29.2,55.3,27.1Z"/></g><g class="b"><path class="c" d="M84.9,24.5c.5,1.9-.1,3.2-1.6,3.9-3.2,1.5-4.7,1.3-6.4-1a5.246,5.246,0,0,0,4.8.8A4.165,4.165,0,0,0,84.9,24.5Z"/></g><path d="M7.8,85.9,4.6,80.1,3.4,81.5v4.4H0V71.8H3.4v5l4.1-5h4.2L6.9,77.5l5,8.4Z"/><path d="M22.2,85.9l-.7-2.1H17.2l-.7,2.1H12.9L18,71.8h2.7l5.1,14.1Zm-2.7-8.8-1.3,3.7h2.4Z"/><path d="M32.3,74.9v11H28.8v-11H25.3V71.8H35.7v3.1Z"/><path d="M52.2,85.9V79.2l-2,3.5H48l-2-3.5v6.7H42.5V71.8h3.4L49.1,78l3.2-6.2h3.4V85.9Z"/><path d="M67.5,84.4a5.553,5.553,0,0,1-7.8,0c-1.5-1.5-1.4-3.5-1.4-5.6s-.1-4.1,1.4-5.6a5.553,5.553,0,0,1,7.8,0c1.5,1.5,1.4,3.5,1.4,5.6C68.9,81,69,82.9,67.5,84.4Zm-2.6-9a1.841,1.841,0,0,0-1.4-.6,2.026,2.026,0,0,0-1.4.6c-.3.4-.5.9-.5,3.5s.2,3,.5,3.4a1.841,1.841,0,0,0,1.4.6,2.026,2.026,0,0,0,1.4-.6c.3-.4.5-.9.5-3.4C65.4,76.3,65.2,75.8,64.9,75.4Z"/><path d="M77.5,74.9v11H74v-11H70.5V71.8H80.9v3.1Z"/><path d="M91.9,84.4a5.553,5.553,0,0,1-7.8,0c-1.5-1.5-1.4-3.5-1.4-5.6s-.1-4.1,1.4-5.6a5.553,5.553,0,0,1,7.8,0c1.5,1.5,1.4,3.5,1.4,5.6C93.3,81,93.4,82.9,91.9,84.4Zm-2.5-9a1.933,1.933,0,0,0-2.8,0c-.3.4-.5.9-.5,3.5s.2,3,.5,3.4a1.933,1.933,0,0,0,2.8,0c.3-.4.5-.9.5-3.4C89.9,76.3,89.7,75.8,89.4,75.4Z"/><path d="M102.9,85.9l-2.5-5.2H99.2v5.2H95.7V71.8h5.6a4.5,4.5,0,0,1,4.8,4.5,4.181,4.181,0,0,1-2.3,3.7l3,5.9Zm-1.7-11h-2v2.8h2a1.454,1.454,0,0,0,1.5-1.4A1.392,1.392,0,0,0,101.2,74.9Z"/><path d="M108.9,85.9V71.8h9.6v3.1h-6.1v2.3h5.2v3.1h-5.2v2.5h6.1v3.1Z"/><path d="M129,85.9l-4.5-7.1v7.1H121V71.8h3l4.5,7.1V71.8H132V85.9Z"/></g></svg>