<svg width="34" height="34" viewBox="0 0 34 34" xmlns="http://www.w3.org/2000/svg"><title>instagram</title><g fill="#9B9B9B"><path d="M22.042 9.036H11.92a2.934 2.934 0 0 0-2.93 2.93v10.122a2.934 2.934 0 0 0 2.93 2.93h10.122a2.934 2.934 0 0 0 2.931-2.93V11.966a2.934 2.934 0 0 0-2.93-2.93zm-5.06 13.253a5.268 5.268 0 0 1-5.262-5.262 5.267 5.267 0 0 1 5.261-5.261 5.268 5.268 0 0 1 5.262 5.261 5.268 5.268 0 0 1-5.262 5.262zm5.43-9.435a1.246 1.246 0 0 1-1.245-1.245 1.246 1.246 0 0 1 2.49 0c0 .686-.559 1.245-1.245 1.245z"/><path d="M16.981 13.989a3.042 3.042 0 0 0-3.038 3.038 3.043 3.043 0 0 0 3.038 3.038 3.042 3.042 0 0 0 3.038-3.038 3.042 3.042 0 0 0-3.038-3.038z"/><path d="M17 0C7.612 0 0 7.612 0 17s7.612 17 17 17 17-7.612 17-17S26.388 0 17 0zm10.226 22.113a5.165 5.165 0 0 1-5.16 5.159H11.934a5.165 5.165 0 0 1-5.159-5.16V11.98a5.165 5.165 0 0 1 5.16-5.16h10.133a5.165 5.165 0 0 1 5.159 5.16v10.134z"/></g></svg>