<svg width="34" height="34" viewBox="0 0 34 34" xmlns="http://www.w3.org/2000/svg"><title>pinterest</title><path d="M34 17.502C34.279 7.8 26.425-.138 16.75.002 7.44.137-.07 7.826 0 17.137c.052 6.671 3.945 12.428 9.577 15.167a.48.48 0 0 0 .69-.45c-.041-1.094-.006-2.264.213-3.204.215-.926 1.06-4.506 1.617-6.857a8.407 8.407 0 0 0 .085-3.49 7.14 7.14 0 0 1-.123-1.32c0-2.514 1.456-4.39 3.27-4.39 1.542 0 2.287 1.158 2.287 2.546 0 1.55-.987 3.87-1.497 6.018-.426 1.799.902 3.266 2.676 3.266 3.213 0 5.682-3.387 5.682-8.277 0-4.327-3.11-7.353-7.55-7.353-5.142 0-8.16 3.857-8.16 7.844 0 1.553.598 3.219 1.344 4.124a.54.54 0 0 1 .126.519c-.137.57-.442 1.798-.502 2.05-.08.33-.262.4-.605.241-2.257-1.05-3.668-4.35-3.668-7.002 0-5.701 4.142-10.937 11.942-10.937 6.27 0 11.142 4.468 11.142 10.439 0 6.229-3.927 11.242-9.379 11.242-1.44 0-2.813-.589-3.62-1.387a.452.452 0 0 0-.756.204c-.285 1.083-.744 2.834-.892 3.404-.267 1.025-.828 2.218-1.391 3.258a.48.48 0 0 0 .306.694c1.39.353 2.848.535 4.35.521 8.923-.083 16.582-7.585 16.837-16.505z" fill="#9B9B9B"/></svg>