<svg width="34" height="34" viewBox="0 0 34 34" xmlns="http://www.w3.org/2000/svg"><title>twitter</title><path d="M16.882 0C7.573 0 0 7.573 0 16.882c0 9.308 7.573 16.881 16.882 16.881 9.308 0 16.881-7.573 16.881-16.881C33.763 7.573 26.191 0 16.882 0zm7.53 13.018c.008.167.012.336.012.504 0 5.135-3.907 11.054-11.056 11.054a10.99 10.99 0 0 1-5.956-1.744c.304.036.613.054.927.054a7.799 7.799 0 0 0 4.826-1.663 3.89 3.89 0 0 1-3.63-2.7 3.917 3.917 0 0 0 1.754-.064 3.886 3.886 0 0 1-3.116-3.81v-.05a3.87 3.87 0 0 0 1.76.486 3.883 3.883 0 0 1-1.728-3.233c0-.713.191-1.38.526-1.955a11.033 11.033 0 0 0 8.008 4.061 3.886 3.886 0 0 1 6.621-3.545 7.756 7.756 0 0 0 2.468-.943 3.903 3.903 0 0 1-1.71 2.15 7.725 7.725 0 0 0 2.231-.61 7.816 7.816 0 0 1-1.936 2.008z" fill="#9B9B9B"/></svg>